<svg xmlns="http://www.w3.org/2000/svg" width="1280" height="720" viewBox="0 0 1280 720" role="img" aria-label="Amplitude interference diagram">
  <defs>
    <linearGradient id="paper" x1="0" x2="1" y1="0" y2="1">
      <stop offset="0" stop-color="#fffaf1"/>
      <stop offset="0.54" stop-color="#f7efe1"/>
      <stop offset="1" stop-color="#e9f3f0"/>
    </linearGradient>
    <linearGradient id="night" x1="0" x2="1" y1="0" y2="1">
      <stop offset="0" stop-color="#101927"/>
      <stop offset="0.55" stop-color="#19323f"/>
      <stop offset="1" stop-color="#2a4f50"/>
    </linearGradient>
    <radialGradient id="glow" cx="50%" cy="44%" r="58%">
      <stop offset="0" stop-color="#f7d98c" stop-opacity="0.55"/>
      <stop offset="0.52" stop-color="#0f8b8d" stop-opacity="0.22"/>
      <stop offset="1" stop-color="#101927" stop-opacity="0"/>
    </radialGradient>
    <filter id="softShadow" x="-20%" y="-20%" width="140%" height="140%">
      <feDropShadow dx="0" dy="16" stdDeviation="18" flood-color="#14202e" flood-opacity="0.18"/>
    </filter>
    <marker id="arrow" markerWidth="12" markerHeight="12" refX="10" refY="6" orient="auto">
      <path d="M 0 0 L 12 6 L 0 12 z" fill="context-stroke"/>
    </marker>
    <style>
      .title { font-family: "Iowan Old Style", "Palatino Linotype", Georgia, serif; font-size: 54px; font-weight: 700; fill: #14202e; }
      .h2 { font-family: Avenir Next, Segoe UI, Helvetica, Arial, sans-serif; font-size: 28px; font-weight: 700; fill: #14202e; }
      .label { font-family: Avenir Next, Segoe UI, Helvetica, Arial, sans-serif; font-size: 19px; fill: #14202e; }
      .small { font-family: Avenir Next, Segoe UI, Helvetica, Arial, sans-serif; font-size: 15px; fill: #5d6877; }
      .formula { font-family: "SFMono-Regular", Menlo, Consolas, monospace; font-size: 18px; fill: #14202e; }
      .hair { stroke: rgba(20,32,46,0.16); stroke-width: 1.2; }
      .axis { stroke: rgba(20,32,46,0.42); stroke-width: 2; }
    </style>
    
  </defs>
  
  <rect width="1280" height="720" fill="url(#paper)"/>
  <text x="66" y="82" class="title">Interference Happens Before Measurement</text>
  <text x="70" y="126" class="small">Quantum paths carry amplitudes. Add the arrows first, then square the result.</text>
  <g filter="url(#softShadow)">
    <rect x="70" y="175" width="510" height="430" rx="24" fill="#fffdfa"/>
    <rect x="700" y="175" width="510" height="430" rx="24" fill="#fffdfa"/>
  </g>
  <text x="110" y="230" class="h2">Constructive</text>
  <text x="740" y="230" class="h2">Destructive</text>
  <g transform="translate(120 288)">
    <line x1="0.0" y1="0.0" x2="170.0" y2="0.0" stroke="#0f8b8d" stroke-width="9" stroke-linecap="round" marker-end="url(#arrow)"/>
    <line x1="0.0" y1="56.0" x2="170.0" y2="56.0" stroke="#f2b84b" stroke-width="9" stroke-linecap="round" marker-end="url(#arrow)"/>
    <line x1="235.0" y1="28.0" x2="575.0" y2="28.0" stroke="#e76f51" stroke-width="11" stroke-linecap="round" marker-end="url(#arrow)"/>
    <text x="4" y="120" class="formula">A_total = A1 + A2</text>
    <text x="235" y="120" class="formula">P = |A_total|^2</text>
    <path d="M 0.0 190.0 L 2.2 192.7 L 4.4 195.3 L 6.5 197.9 L 8.7 200.4 L 10.9 202.8 L 13.1 205.0 L 15.3 207.0 L 17.4 208.8 L 19.6 210.3 L 21.8 211.6 L 24.0 212.7 L 26.1 213.4 L 28.3 213.9 L 30.5 214.0 L 32.7 213.8 L 34.9 213.4 L 37.0 212.6 L 39.2 211.6 L 41.4 210.3 L 43.6 208.7 L 45.8 206.9 L 47.9 204.9 L 50.1 202.7 L 52.3 200.3 L 54.5 197.9 L 56.6 195.3 L 58.8 192.6 L 61.0 189.9 L 63.2 187.2 L 65.4 184.6 L 67.5 182.0 L 69.7 179.5 L 71.9 177.1 L 74.1 175.0 L 76.3 173.0 L 78.4 171.2 L 80.6 169.6 L 82.8 168.3 L 85.0 167.3 L 87.2 166.6 L 89.3 166.1 L 91.5 166.0 L 93.7 166.2 L 95.9 166.6 L 98.0 167.4 L 100.2 168.4 L 102.4 169.8 L 104.6 171.3 L 106.8 173.1 L 108.9 175.2 L 111.1 177.4 L 113.3 179.7 L 115.5 182.2 L 117.7 184.8 L 119.8 187.5 L 122.0 190.2 L 124.2 192.9 L 126.4 195.5 L 128.5 198.1 L 130.7 200.6 L 132.9 202.9 L 135.1 205.1 L 137.3 207.1 L 139.4 208.9 L 141.6 210.4 L 143.8 211.7 L 146.0 212.7 L 148.2 213.4 L 150.3 213.9 L 152.5 214.0 L 154.7 213.8 L 156.9 213.3 L 159.1 212.6 L 161.2 211.5 L 163.4 210.2 L 165.6 208.6 L 167.8 206.8 L 169.9 204.8 L 172.1 202.6 L 174.3 200.2 L 176.5 197.7 L 178.7 195.1 L 180.8 192.4 L 183.0 189.7 L 185.2 187.1 L 187.4 184.4 L 189.6 181.8 L 191.7 179.3 L 193.9 177.0 L 196.1 174.8 L 198.3 172.8 L 200.4 171.1 L 202.6 169.5 L 204.8 168.3 L 207.0 167.3 L 209.2 166.5 L 211.3 166.1 L 213.5 166.0 L 215.7 166.2 L 217.9 166.7 L 220.1 167.4 L 222.2 168.5 L 224.4 169.8 L 226.6 171.4 L 228.8 173.3 L 230.9 175.3 L 233.1 177.5 L 235.3 179.9 L 237.5 182.4 L 239.7 185.0 L 241.8 187.6 L 244.0 190.3 L 246.2 193.0 L 248.4 195.7 L 250.6 198.3 L 252.7 200.7 L 254.9 203.1 L 257.1 205.2 L 259.3 207.2 L 261.5 209.0 L 263.6 210.5 L 265.8 211.8 L 268.0 212.8 L 270.2 213.5 L 272.3 213.9 L 274.5 214.0 L 276.7 213.8 L 278.9 213.3 L 281.1 212.5 L 283.2 211.5 L 285.4 210.1 L 287.6 208.5 L 289.8 206.7 L 292.0 204.6 L 294.1 202.4 L 296.3 200.0 L 298.5 197.5 L 300.7 194.9 L 302.8 192.3 L 305.0 189.6 L 307.2 186.9 L 309.4 184.2 L 311.6 181.7 L 313.7 179.2 L 315.9 176.9 L 318.1 174.7 L 320.3 172.7 L 322.5 171.0 L 324.6 169.4 L 326.8 168.2 L 329.0 167.2 L 331.2 166.5 L 333.4 166.1 L 335.5 166.0 L 337.7 166.2 L 339.9 166.7 L 342.1 167.5 L 344.2 168.6 L 346.4 169.9 L 348.6 171.5 L 350.8 173.4 L 353.0 175.4 L 355.1 177.6 L 357.3 180.0 L 359.5 182.5 L 361.7 185.1 L 363.9 187.8 L 366.0 190.5 L 368.2 193.2 L 370.4 195.8 L 372.6 198.4 L 374.7 200.9 L 376.9 203.2 L 379.1 205.4 L 381.3 207.3 L 383.5 209.1 L 385.6 210.6 L 387.8 211.9 L 390.0 212.8" fill="none" stroke="#0f8b8d" stroke-width="5"/>
    <path d="M 0.0 190.0 L 2.2 192.7 L 4.4 195.3 L 6.5 197.9 L 8.7 200.4 L 10.9 202.8 L 13.1 205.0 L 15.3 207.0 L 17.4 208.8 L 19.6 210.3 L 21.8 211.6 L 24.0 212.7 L 26.1 213.4 L 28.3 213.9 L 30.5 214.0 L 32.7 213.8 L 34.9 213.4 L 37.0 212.6 L 39.2 211.6 L 41.4 210.3 L 43.6 208.7 L 45.8 206.9 L 47.9 204.9 L 50.1 202.7 L 52.3 200.3 L 54.5 197.9 L 56.6 195.3 L 58.8 192.6 L 61.0 189.9 L 63.2 187.2 L 65.4 184.6 L 67.5 182.0 L 69.7 179.5 L 71.9 177.1 L 74.1 175.0 L 76.3 173.0 L 78.4 171.2 L 80.6 169.6 L 82.8 168.3 L 85.0 167.3 L 87.2 166.6 L 89.3 166.1 L 91.5 166.0 L 93.7 166.2 L 95.9 166.6 L 98.0 167.4 L 100.2 168.4 L 102.4 169.8 L 104.6 171.3 L 106.8 173.1 L 108.9 175.2 L 111.1 177.4 L 113.3 179.7 L 115.5 182.2 L 117.7 184.8 L 119.8 187.5 L 122.0 190.2 L 124.2 192.9 L 126.4 195.5 L 128.5 198.1 L 130.7 200.6 L 132.9 202.9 L 135.1 205.1 L 137.3 207.1 L 139.4 208.9 L 141.6 210.4 L 143.8 211.7 L 146.0 212.7 L 148.2 213.4 L 150.3 213.9 L 152.5 214.0 L 154.7 213.8 L 156.9 213.3 L 159.1 212.6 L 161.2 211.5 L 163.4 210.2 L 165.6 208.6 L 167.8 206.8 L 169.9 204.8 L 172.1 202.6 L 174.3 200.2 L 176.5 197.7 L 178.7 195.1 L 180.8 192.4 L 183.0 189.7 L 185.2 187.1 L 187.4 184.4 L 189.6 181.8 L 191.7 179.3 L 193.9 177.0 L 196.1 174.8 L 198.3 172.8 L 200.4 171.1 L 202.6 169.5 L 204.8 168.3 L 207.0 167.3 L 209.2 166.5 L 211.3 166.1 L 213.5 166.0 L 215.7 166.2 L 217.9 166.7 L 220.1 167.4 L 222.2 168.5 L 224.4 169.8 L 226.6 171.4 L 228.8 173.3 L 230.9 175.3 L 233.1 177.5 L 235.3 179.9 L 237.5 182.4 L 239.7 185.0 L 241.8 187.6 L 244.0 190.3 L 246.2 193.0 L 248.4 195.7 L 250.6 198.3 L 252.7 200.7 L 254.9 203.1 L 257.1 205.2 L 259.3 207.2 L 261.5 209.0 L 263.6 210.5 L 265.8 211.8 L 268.0 212.8 L 270.2 213.5 L 272.3 213.9 L 274.5 214.0 L 276.7 213.8 L 278.9 213.3 L 281.1 212.5 L 283.2 211.5 L 285.4 210.1 L 287.6 208.5 L 289.8 206.7 L 292.0 204.6 L 294.1 202.4 L 296.3 200.0 L 298.5 197.5 L 300.7 194.9 L 302.8 192.3 L 305.0 189.6 L 307.2 186.9 L 309.4 184.2 L 311.6 181.7 L 313.7 179.2 L 315.9 176.9 L 318.1 174.7 L 320.3 172.7 L 322.5 171.0 L 324.6 169.4 L 326.8 168.2 L 329.0 167.2 L 331.2 166.5 L 333.4 166.1 L 335.5 166.0 L 337.7 166.2 L 339.9 166.7 L 342.1 167.5 L 344.2 168.6 L 346.4 169.9 L 348.6 171.5 L 350.8 173.4 L 353.0 175.4 L 355.1 177.6 L 357.3 180.0 L 359.5 182.5 L 361.7 185.1 L 363.9 187.8 L 366.0 190.5 L 368.2 193.2 L 370.4 195.8 L 372.6 198.4 L 374.7 200.9 L 376.9 203.2 L 379.1 205.4 L 381.3 207.3 L 383.5 209.1 L 385.6 210.6 L 387.8 211.9 L 390.0 212.8" fill="none" stroke="#f2b84b" stroke-width="5" stroke-opacity="0.55" transform="translate(0 36)"/>
  </g>
  <g transform="translate(750 288)">
    <line x1="0.0" y1="0.0" x2="170.0" y2="0.0" stroke="#0f8b8d" stroke-width="9" stroke-linecap="round" marker-end="url(#arrow)"/>
    <line x1="172.0" y1="56.0" x2="2.0" y2="56.0" stroke="#f2b84b" stroke-width="9" stroke-linecap="round" marker-end="url(#arrow)"/>
    <circle cx="280" cy="28" r="18" fill="#e76f51"/>
    <text x="315" y="35" class="formula">0 amplitude</text>
    <text x="4" y="120" class="formula">A_total = A1 - A1 = 0</text>
    <text x="4" y="158" class="formula">P = |0|^2 = 0</text>
    <path d="M 0.0 218.0 L 2.2 220.7 L 4.4 223.3 L 6.5 225.9 L 8.7 228.4 L 10.9 230.8 L 13.1 233.0 L 15.3 235.0 L 17.4 236.8 L 19.6 238.3 L 21.8 239.6 L 24.0 240.7 L 26.1 241.4 L 28.3 241.9 L 30.5 242.0 L 32.7 241.8 L 34.9 241.4 L 37.0 240.6 L 39.2 239.6 L 41.4 238.3 L 43.6 236.7 L 45.8 234.9 L 47.9 232.9 L 50.1 230.7 L 52.3 228.3 L 54.5 225.9 L 56.6 223.3 L 58.8 220.6 L 61.0 217.9 L 63.2 215.2 L 65.4 212.6 L 67.5 210.0 L 69.7 207.5 L 71.9 205.1 L 74.1 203.0 L 76.3 201.0 L 78.4 199.2 L 80.6 197.6 L 82.8 196.3 L 85.0 195.3 L 87.2 194.6 L 89.3 194.1 L 91.5 194.0 L 93.7 194.2 L 95.9 194.6 L 98.0 195.4 L 100.2 196.4 L 102.4 197.8 L 104.6 199.3 L 106.8 201.1 L 108.9 203.2 L 111.1 205.4 L 113.3 207.7 L 115.5 210.2 L 117.7 212.8 L 119.8 215.5 L 122.0 218.2 L 124.2 220.9 L 126.4 223.5 L 128.5 226.1 L 130.7 228.6 L 132.9 230.9 L 135.1 233.1 L 137.3 235.1 L 139.4 236.9 L 141.6 238.4 L 143.8 239.7 L 146.0 240.7 L 148.2 241.4 L 150.3 241.9 L 152.5 242.0 L 154.7 241.8 L 156.9 241.3 L 159.1 240.6 L 161.2 239.5 L 163.4 238.2 L 165.6 236.6 L 167.8 234.8 L 169.9 232.8 L 172.1 230.6 L 174.3 228.2 L 176.5 225.7 L 178.7 223.1 L 180.8 220.4 L 183.0 217.7 L 185.2 215.1 L 187.4 212.4 L 189.6 209.8 L 191.7 207.3 L 193.9 205.0 L 196.1 202.8 L 198.3 200.8 L 200.4 199.1 L 202.6 197.5 L 204.8 196.3 L 207.0 195.3 L 209.2 194.5 L 211.3 194.1 L 213.5 194.0 L 215.7 194.2 L 217.9 194.7 L 220.1 195.4 L 222.2 196.5 L 224.4 197.8 L 226.6 199.4 L 228.8 201.3 L 230.9 203.3 L 233.1 205.5 L 235.3 207.9 L 237.5 210.4 L 239.7 213.0 L 241.8 215.6 L 244.0 218.3 L 246.2 221.0 L 248.4 223.7 L 250.6 226.3 L 252.7 228.7 L 254.9 231.1 L 257.1 233.2 L 259.3 235.2 L 261.5 237.0 L 263.6 238.5 L 265.8 239.8 L 268.0 240.8 L 270.2 241.5 L 272.3 241.9 L 274.5 242.0 L 276.7 241.8 L 278.9 241.3 L 281.1 240.5 L 283.2 239.5 L 285.4 238.1 L 287.6 236.5 L 289.8 234.7 L 292.0 232.6 L 294.1 230.4 L 296.3 228.0 L 298.5 225.5 L 300.7 222.9 L 302.8 220.3 L 305.0 217.6 L 307.2 214.9 L 309.4 212.2 L 311.6 209.7 L 313.7 207.2 L 315.9 204.9 L 318.1 202.7 L 320.3 200.7 L 322.5 199.0 L 324.6 197.4 L 326.8 196.2 L 329.0 195.2 L 331.2 194.5 L 333.4 194.1 L 335.5 194.0 L 337.7 194.2 L 339.9 194.7 L 342.1 195.5 L 344.2 196.6 L 346.4 197.9 L 348.6 199.5 L 350.8 201.4 L 353.0 203.4 L 355.1 205.6 L 357.3 208.0 L 359.5 210.5 L 361.7 213.1 L 363.9 215.8 L 366.0 218.5 L 368.2 221.2 L 370.4 223.8 L 372.6 226.4 L 374.7 228.9 L 376.9 231.2 L 379.1 233.4 L 381.3 235.3 L 383.5 237.1 L 385.6 238.6 L 387.8 239.9 L 390.0 240.8" fill="none" stroke="#0f8b8d" stroke-width="5"/>
    <path d="M 0.0 218.0 L 2.2 215.3 L 4.4 212.7 L 6.5 210.1 L 8.7 207.6 L 10.9 205.2 L 13.1 203.0 L 15.3 201.0 L 17.4 199.2 L 19.6 197.7 L 21.8 196.4 L 24.0 195.3 L 26.1 194.6 L 28.3 194.1 L 30.5 194.0 L 32.7 194.2 L 34.9 194.6 L 37.0 195.4 L 39.2 196.4 L 41.4 197.7 L 43.6 199.3 L 45.8 201.1 L 47.9 203.1 L 50.1 205.3 L 52.3 207.7 L 54.5 210.1 L 56.6 212.7 L 58.8 215.4 L 61.0 218.1 L 63.2 220.8 L 65.4 223.4 L 67.5 226.0 L 69.7 228.5 L 71.9 230.9 L 74.1 233.0 L 76.3 235.0 L 78.4 236.8 L 80.6 238.4 L 82.8 239.7 L 85.0 240.7 L 87.2 241.4 L 89.3 241.9 L 91.5 242.0 L 93.7 241.8 L 95.9 241.4 L 98.0 240.6 L 100.2 239.6 L 102.4 238.2 L 104.6 236.7 L 106.8 234.9 L 108.9 232.8 L 111.1 230.6 L 113.3 228.3 L 115.5 225.8 L 117.7 223.2 L 119.8 220.5 L 122.0 217.8 L 124.2 215.1 L 126.4 212.5 L 128.5 209.9 L 130.7 207.4 L 132.9 205.1 L 135.1 202.9 L 137.3 200.9 L 139.4 199.1 L 141.6 197.6 L 143.8 196.3 L 146.0 195.3 L 148.2 194.6 L 150.3 194.1 L 152.5 194.0 L 154.7 194.2 L 156.9 194.7 L 159.1 195.4 L 161.2 196.5 L 163.4 197.8 L 165.6 199.4 L 167.8 201.2 L 169.9 203.2 L 172.1 205.4 L 174.3 207.8 L 176.5 210.3 L 178.7 212.9 L 180.8 215.6 L 183.0 218.3 L 185.2 220.9 L 187.4 223.6 L 189.6 226.2 L 191.7 228.7 L 193.9 231.0 L 196.1 233.2 L 198.3 235.2 L 200.4 236.9 L 202.6 238.5 L 204.8 239.7 L 207.0 240.7 L 209.2 241.5 L 211.3 241.9 L 213.5 242.0 L 215.7 241.8 L 217.9 241.3 L 220.1 240.6 L 222.2 239.5 L 224.4 238.2 L 226.6 236.6 L 228.8 234.7 L 230.9 232.7 L 233.1 230.5 L 235.3 228.1 L 237.5 225.6 L 239.7 223.0 L 241.8 220.4 L 244.0 217.7 L 246.2 215.0 L 248.4 212.3 L 250.6 209.7 L 252.7 207.3 L 254.9 204.9 L 257.1 202.8 L 259.3 200.8 L 261.5 199.0 L 263.6 197.5 L 265.8 196.2 L 268.0 195.2 L 270.2 194.5 L 272.3 194.1 L 274.5 194.0 L 276.7 194.2 L 278.9 194.7 L 281.1 195.5 L 283.2 196.5 L 285.4 197.9 L 287.6 199.5 L 289.8 201.3 L 292.0 203.4 L 294.1 205.6 L 296.3 208.0 L 298.5 210.5 L 300.7 213.1 L 302.8 215.7 L 305.0 218.4 L 307.2 221.1 L 309.4 223.8 L 311.6 226.3 L 313.7 228.8 L 315.9 231.1 L 318.1 233.3 L 320.3 235.3 L 322.5 237.0 L 324.6 238.6 L 326.8 239.8 L 329.0 240.8 L 331.2 241.5 L 333.4 241.9 L 335.5 242.0 L 337.7 241.8 L 339.9 241.3 L 342.1 240.5 L 344.2 239.4 L 346.4 238.1 L 348.6 236.5 L 350.8 234.6 L 353.0 232.6 L 355.1 230.4 L 357.3 228.0 L 359.5 225.5 L 361.7 222.9 L 363.9 220.2 L 366.0 217.5 L 368.2 214.8 L 370.4 212.2 L 372.6 209.6 L 374.7 207.1 L 376.9 204.8 L 379.1 202.6 L 381.3 200.7 L 383.5 198.9 L 385.6 197.4 L 387.8 196.1 L 390.0 195.2" fill="none" stroke="#f2b84b" stroke-width="5"/>
  </g>

</svg>
