<svg xmlns="http://www.w3.org/2000/svg" width="1200" height="760" viewBox="0 0 1200 760" role="img" aria-label="Bloch sphere reference states">
  <defs>
    <linearGradient id="paper" x1="0" x2="1" y1="0" y2="1">
      <stop offset="0" stop-color="#fffaf1"/>
      <stop offset="0.54" stop-color="#f7efe1"/>
      <stop offset="1" stop-color="#e9f3f0"/>
    </linearGradient>
    <linearGradient id="night" x1="0" x2="1" y1="0" y2="1">
      <stop offset="0" stop-color="#101927"/>
      <stop offset="0.55" stop-color="#19323f"/>
      <stop offset="1" stop-color="#2a4f50"/>
    </linearGradient>
    <radialGradient id="glow" cx="50%" cy="44%" r="58%">
      <stop offset="0" stop-color="#f7d98c" stop-opacity="0.55"/>
      <stop offset="0.52" stop-color="#0f8b8d" stop-opacity="0.22"/>
      <stop offset="1" stop-color="#101927" stop-opacity="0"/>
    </radialGradient>
    <filter id="softShadow" x="-20%" y="-20%" width="140%" height="140%">
      <feDropShadow dx="0" dy="16" stdDeviation="18" flood-color="#14202e" flood-opacity="0.18"/>
    </filter>
    <marker id="arrow" markerWidth="12" markerHeight="12" refX="10" refY="6" orient="auto">
      <path d="M 0 0 L 12 6 L 0 12 z" fill="context-stroke"/>
    </marker>
    <style>
      .title { font-family: "Iowan Old Style", "Palatino Linotype", Georgia, serif; font-size: 54px; font-weight: 700; fill: #14202e; }
      .h2 { font-family: Avenir Next, Segoe UI, Helvetica, Arial, sans-serif; font-size: 28px; font-weight: 700; fill: #14202e; }
      .label { font-family: Avenir Next, Segoe UI, Helvetica, Arial, sans-serif; font-size: 19px; fill: #14202e; }
      .small { font-family: Avenir Next, Segoe UI, Helvetica, Arial, sans-serif; font-size: 15px; fill: #5d6877; }
      .formula { font-family: "SFMono-Regular", Menlo, Consolas, monospace; font-size: 18px; fill: #14202e; }
      .hair { stroke: rgba(20,32,46,0.16); stroke-width: 1.2; }
      .axis { stroke: rgba(20,32,46,0.42); stroke-width: 2; }
    </style>
    
  </defs>
  
  <rect width="1200" height="760" fill="url(#paper)"/>
  <text x="62" y="74" class="title">The Bloch Sphere Reference States</text>
  <text x="66" y="116" class="small">One pure qubit is a direction. Measurement projects that direction onto an axis.</text>
  
      <g>
        <circle cx="230" cy="250" r="108" fill="#ecfbf7" stroke="#2f6fbb" stroke-opacity="0.55" stroke-width="2"/>
        <ellipse cx="230" cy="216.0" rx="108.0" ry="34.6" fill="none" stroke="#2f6fbb" stroke-opacity="0.24" stroke-width="1.5"/><ellipse cx="230" cy="250" rx="36.7" ry="108.0" fill="none" stroke="#2f6fbb" stroke-opacity="0.18" stroke-width="1.5" transform="rotate(-36 230 250)"/><ellipse cx="230" cy="227.3" rx="108.0" ry="34.6" fill="none" stroke="#2f6fbb" stroke-opacity="0.24" stroke-width="1.5"/><ellipse cx="230" cy="250" rx="36.7" ry="108.0" fill="none" stroke="#2f6fbb" stroke-opacity="0.18" stroke-width="1.5" transform="rotate(-24 230 250)"/><ellipse cx="230" cy="238.7" rx="108.0" ry="34.6" fill="none" stroke="#2f6fbb" stroke-opacity="0.24" stroke-width="1.5"/><ellipse cx="230" cy="250" rx="36.7" ry="108.0" fill="none" stroke="#2f6fbb" stroke-opacity="0.18" stroke-width="1.5" transform="rotate(-12 230 250)"/><ellipse cx="230" cy="250.0" rx="108.0" ry="34.6" fill="none" stroke="#2f6fbb" stroke-opacity="0.24" stroke-width="1.5"/><ellipse cx="230" cy="250" rx="36.7" ry="108.0" fill="none" stroke="#2f6fbb" stroke-opacity="0.18" stroke-width="1.5" transform="rotate(0 230 250)"/><ellipse cx="230" cy="261.3" rx="108.0" ry="34.6" fill="none" stroke="#2f6fbb" stroke-opacity="0.24" stroke-width="1.5"/><ellipse cx="230" cy="250" rx="36.7" ry="108.0" fill="none" stroke="#2f6fbb" stroke-opacity="0.18" stroke-width="1.5" transform="rotate(12 230 250)"/><ellipse cx="230" cy="272.7" rx="108.0" ry="34.6" fill="none" stroke="#2f6fbb" stroke-opacity="0.24" stroke-width="1.5"/><ellipse cx="230" cy="250" rx="36.7" ry="108.0" fill="none" stroke="#2f6fbb" stroke-opacity="0.18" stroke-width="1.5" transform="rotate(24 230 250)"/><ellipse cx="230" cy="284.0" rx="108.0" ry="34.6" fill="none" stroke="#2f6fbb" stroke-opacity="0.24" stroke-width="1.5"/><ellipse cx="230" cy="250" rx="36.7" ry="108.0" fill="none" stroke="#2f6fbb" stroke-opacity="0.18" stroke-width="1.5" transform="rotate(36 230 250)"/>
        <line x1="230.0" y1="250.0" x2="230.0" y2="158.6" stroke="#0f8b8d" stroke-width="6" stroke-linecap="round" marker-end="url(#arrow)"/>
        <circle cx="230.0" cy="158.6" r="7" fill="#0f8b8d"/>
        <text x="167.4" y="392.0" class="label">|0&gt;</text>
      </g>
    
      <g>
        <circle cx="600" cy="250" r="108" fill="#ecfbf7" stroke="#2f6fbb" stroke-opacity="0.55" stroke-width="2"/>
        <ellipse cx="600" cy="216.0" rx="108.0" ry="34.6" fill="none" stroke="#2f6fbb" stroke-opacity="0.24" stroke-width="1.5"/><ellipse cx="600" cy="250" rx="36.7" ry="108.0" fill="none" stroke="#2f6fbb" stroke-opacity="0.18" stroke-width="1.5" transform="rotate(-36 600 250)"/><ellipse cx="600" cy="227.3" rx="108.0" ry="34.6" fill="none" stroke="#2f6fbb" stroke-opacity="0.24" stroke-width="1.5"/><ellipse cx="600" cy="250" rx="36.7" ry="108.0" fill="none" stroke="#2f6fbb" stroke-opacity="0.18" stroke-width="1.5" transform="rotate(-24 600 250)"/><ellipse cx="600" cy="238.7" rx="108.0" ry="34.6" fill="none" stroke="#2f6fbb" stroke-opacity="0.24" stroke-width="1.5"/><ellipse cx="600" cy="250" rx="36.7" ry="108.0" fill="none" stroke="#2f6fbb" stroke-opacity="0.18" stroke-width="1.5" transform="rotate(-12 600 250)"/><ellipse cx="600" cy="250.0" rx="108.0" ry="34.6" fill="none" stroke="#2f6fbb" stroke-opacity="0.24" stroke-width="1.5"/><ellipse cx="600" cy="250" rx="36.7" ry="108.0" fill="none" stroke="#2f6fbb" stroke-opacity="0.18" stroke-width="1.5" transform="rotate(0 600 250)"/><ellipse cx="600" cy="261.3" rx="108.0" ry="34.6" fill="none" stroke="#2f6fbb" stroke-opacity="0.24" stroke-width="1.5"/><ellipse cx="600" cy="250" rx="36.7" ry="108.0" fill="none" stroke="#2f6fbb" stroke-opacity="0.18" stroke-width="1.5" transform="rotate(12 600 250)"/><ellipse cx="600" cy="272.7" rx="108.0" ry="34.6" fill="none" stroke="#2f6fbb" stroke-opacity="0.24" stroke-width="1.5"/><ellipse cx="600" cy="250" rx="36.7" ry="108.0" fill="none" stroke="#2f6fbb" stroke-opacity="0.18" stroke-width="1.5" transform="rotate(24 600 250)"/><ellipse cx="600" cy="284.0" rx="108.0" ry="34.6" fill="none" stroke="#2f6fbb" stroke-opacity="0.24" stroke-width="1.5"/><ellipse cx="600" cy="250" rx="36.7" ry="108.0" fill="none" stroke="#2f6fbb" stroke-opacity="0.18" stroke-width="1.5" transform="rotate(36 600 250)"/>
        <line x1="600.0" y1="250.0" x2="600.0" y2="341.4" stroke="#e76f51" stroke-width="6" stroke-linecap="round" marker-end="url(#arrow)"/>
        <circle cx="600.0" cy="341.4" r="7" fill="#e76f51"/>
        <text x="537.4" y="392.0" class="label">|1&gt;</text>
      </g>
    
      <g>
        <circle cx="970" cy="250" r="108" fill="#ecfbf7" stroke="#2f6fbb" stroke-opacity="0.55" stroke-width="2"/>
        <ellipse cx="970" cy="216.0" rx="108.0" ry="34.6" fill="none" stroke="#2f6fbb" stroke-opacity="0.24" stroke-width="1.5"/><ellipse cx="970" cy="250" rx="36.7" ry="108.0" fill="none" stroke="#2f6fbb" stroke-opacity="0.18" stroke-width="1.5" transform="rotate(-36 970 250)"/><ellipse cx="970" cy="227.3" rx="108.0" ry="34.6" fill="none" stroke="#2f6fbb" stroke-opacity="0.24" stroke-width="1.5"/><ellipse cx="970" cy="250" rx="36.7" ry="108.0" fill="none" stroke="#2f6fbb" stroke-opacity="0.18" stroke-width="1.5" transform="rotate(-24 970 250)"/><ellipse cx="970" cy="238.7" rx="108.0" ry="34.6" fill="none" stroke="#2f6fbb" stroke-opacity="0.24" stroke-width="1.5"/><ellipse cx="970" cy="250" rx="36.7" ry="108.0" fill="none" stroke="#2f6fbb" stroke-opacity="0.18" stroke-width="1.5" transform="rotate(-12 970 250)"/><ellipse cx="970" cy="250.0" rx="108.0" ry="34.6" fill="none" stroke="#2f6fbb" stroke-opacity="0.24" stroke-width="1.5"/><ellipse cx="970" cy="250" rx="36.7" ry="108.0" fill="none" stroke="#2f6fbb" stroke-opacity="0.18" stroke-width="1.5" transform="rotate(0 970 250)"/><ellipse cx="970" cy="261.3" rx="108.0" ry="34.6" fill="none" stroke="#2f6fbb" stroke-opacity="0.24" stroke-width="1.5"/><ellipse cx="970" cy="250" rx="36.7" ry="108.0" fill="none" stroke="#2f6fbb" stroke-opacity="0.18" stroke-width="1.5" transform="rotate(12 970 250)"/><ellipse cx="970" cy="272.7" rx="108.0" ry="34.6" fill="none" stroke="#2f6fbb" stroke-opacity="0.24" stroke-width="1.5"/><ellipse cx="970" cy="250" rx="36.7" ry="108.0" fill="none" stroke="#2f6fbb" stroke-opacity="0.18" stroke-width="1.5" transform="rotate(24 970 250)"/><ellipse cx="970" cy="284.0" rx="108.0" ry="34.6" fill="none" stroke="#2f6fbb" stroke-opacity="0.24" stroke-width="1.5"/><ellipse cx="970" cy="250" rx="36.7" ry="108.0" fill="none" stroke="#2f6fbb" stroke-opacity="0.18" stroke-width="1.5" transform="rotate(36 970 250)"/>
        <line x1="970.0" y1="250.0" x2="1053.6" y2="250.0" stroke="#f2b84b" stroke-width="6" stroke-linecap="round" marker-end="url(#arrow)"/>
        <circle cx="1053.6" cy="250.0" r="7" fill="#f2b84b"/>
        <text x="907.4" y="392.0" class="label">|+&gt;</text>
      </g>
    
      <g>
        <circle cx="230" cy="520" r="108" fill="#ecfbf7" stroke="#2f6fbb" stroke-opacity="0.55" stroke-width="2"/>
        <ellipse cx="230" cy="486.0" rx="108.0" ry="34.6" fill="none" stroke="#2f6fbb" stroke-opacity="0.24" stroke-width="1.5"/><ellipse cx="230" cy="520" rx="36.7" ry="108.0" fill="none" stroke="#2f6fbb" stroke-opacity="0.18" stroke-width="1.5" transform="rotate(-36 230 520)"/><ellipse cx="230" cy="497.3" rx="108.0" ry="34.6" fill="none" stroke="#2f6fbb" stroke-opacity="0.24" stroke-width="1.5"/><ellipse cx="230" cy="520" rx="36.7" ry="108.0" fill="none" stroke="#2f6fbb" stroke-opacity="0.18" stroke-width="1.5" transform="rotate(-24 230 520)"/><ellipse cx="230" cy="508.7" rx="108.0" ry="34.6" fill="none" stroke="#2f6fbb" stroke-opacity="0.24" stroke-width="1.5"/><ellipse cx="230" cy="520" rx="36.7" ry="108.0" fill="none" stroke="#2f6fbb" stroke-opacity="0.18" stroke-width="1.5" transform="rotate(-12 230 520)"/><ellipse cx="230" cy="520.0" rx="108.0" ry="34.6" fill="none" stroke="#2f6fbb" stroke-opacity="0.24" stroke-width="1.5"/><ellipse cx="230" cy="520" rx="36.7" ry="108.0" fill="none" stroke="#2f6fbb" stroke-opacity="0.18" stroke-width="1.5" transform="rotate(0 230 520)"/><ellipse cx="230" cy="531.3" rx="108.0" ry="34.6" fill="none" stroke="#2f6fbb" stroke-opacity="0.24" stroke-width="1.5"/><ellipse cx="230" cy="520" rx="36.7" ry="108.0" fill="none" stroke="#2f6fbb" stroke-opacity="0.18" stroke-width="1.5" transform="rotate(12 230 520)"/><ellipse cx="230" cy="542.7" rx="108.0" ry="34.6" fill="none" stroke="#2f6fbb" stroke-opacity="0.24" stroke-width="1.5"/><ellipse cx="230" cy="520" rx="36.7" ry="108.0" fill="none" stroke="#2f6fbb" stroke-opacity="0.18" stroke-width="1.5" transform="rotate(24 230 520)"/><ellipse cx="230" cy="554.0" rx="108.0" ry="34.6" fill="none" stroke="#2f6fbb" stroke-opacity="0.24" stroke-width="1.5"/><ellipse cx="230" cy="520" rx="36.7" ry="108.0" fill="none" stroke="#2f6fbb" stroke-opacity="0.18" stroke-width="1.5" transform="rotate(36 230 520)"/>
        <line x1="230.0" y1="520.0" x2="146.4" y2="520.0" stroke="#2f6fbb" stroke-width="6" stroke-linecap="round" marker-end="url(#arrow)"/>
        <circle cx="146.4" cy="520.0" r="7" fill="#2f6fbb"/>
        <text x="167.4" y="662.0" class="label">|-&gt;</text>
      </g>
    
      <g>
        <circle cx="600" cy="520" r="108" fill="#ecfbf7" stroke="#2f6fbb" stroke-opacity="0.55" stroke-width="2"/>
        <ellipse cx="600" cy="486.0" rx="108.0" ry="34.6" fill="none" stroke="#2f6fbb" stroke-opacity="0.24" stroke-width="1.5"/><ellipse cx="600" cy="520" rx="36.7" ry="108.0" fill="none" stroke="#2f6fbb" stroke-opacity="0.18" stroke-width="1.5" transform="rotate(-36 600 520)"/><ellipse cx="600" cy="497.3" rx="108.0" ry="34.6" fill="none" stroke="#2f6fbb" stroke-opacity="0.24" stroke-width="1.5"/><ellipse cx="600" cy="520" rx="36.7" ry="108.0" fill="none" stroke="#2f6fbb" stroke-opacity="0.18" stroke-width="1.5" transform="rotate(-24 600 520)"/><ellipse cx="600" cy="508.7" rx="108.0" ry="34.6" fill="none" stroke="#2f6fbb" stroke-opacity="0.24" stroke-width="1.5"/><ellipse cx="600" cy="520" rx="36.7" ry="108.0" fill="none" stroke="#2f6fbb" stroke-opacity="0.18" stroke-width="1.5" transform="rotate(-12 600 520)"/><ellipse cx="600" cy="520.0" rx="108.0" ry="34.6" fill="none" stroke="#2f6fbb" stroke-opacity="0.24" stroke-width="1.5"/><ellipse cx="600" cy="520" rx="36.7" ry="108.0" fill="none" stroke="#2f6fbb" stroke-opacity="0.18" stroke-width="1.5" transform="rotate(0 600 520)"/><ellipse cx="600" cy="531.3" rx="108.0" ry="34.6" fill="none" stroke="#2f6fbb" stroke-opacity="0.24" stroke-width="1.5"/><ellipse cx="600" cy="520" rx="36.7" ry="108.0" fill="none" stroke="#2f6fbb" stroke-opacity="0.18" stroke-width="1.5" transform="rotate(12 600 520)"/><ellipse cx="600" cy="542.7" rx="108.0" ry="34.6" fill="none" stroke="#2f6fbb" stroke-opacity="0.24" stroke-width="1.5"/><ellipse cx="600" cy="520" rx="36.7" ry="108.0" fill="none" stroke="#2f6fbb" stroke-opacity="0.18" stroke-width="1.5" transform="rotate(24 600 520)"/><ellipse cx="600" cy="554.0" rx="108.0" ry="34.6" fill="none" stroke="#2f6fbb" stroke-opacity="0.24" stroke-width="1.5"/><ellipse cx="600" cy="520" rx="36.7" ry="108.0" fill="none" stroke="#2f6fbb" stroke-opacity="0.18" stroke-width="1.5" transform="rotate(36 600 520)"/>
        <line x1="600.0" y1="520.0" x2="549.5" y2="541.4" stroke="#3a9f6b" stroke-width="6" stroke-linecap="round" marker-end="url(#arrow)"/>
        <circle cx="549.5" cy="541.4" r="7" fill="#3a9f6b"/>
        <text x="537.4" y="662.0" class="label">|+i&gt;</text>
      </g>
    
      <g>
        <circle cx="970" cy="520" r="108" fill="#ecfbf7" stroke="#2f6fbb" stroke-opacity="0.55" stroke-width="2"/>
        <ellipse cx="970" cy="486.0" rx="108.0" ry="34.6" fill="none" stroke="#2f6fbb" stroke-opacity="0.24" stroke-width="1.5"/><ellipse cx="970" cy="520" rx="36.7" ry="108.0" fill="none" stroke="#2f6fbb" stroke-opacity="0.18" stroke-width="1.5" transform="rotate(-36 970 520)"/><ellipse cx="970" cy="497.3" rx="108.0" ry="34.6" fill="none" stroke="#2f6fbb" stroke-opacity="0.24" stroke-width="1.5"/><ellipse cx="970" cy="520" rx="36.7" ry="108.0" fill="none" stroke="#2f6fbb" stroke-opacity="0.18" stroke-width="1.5" transform="rotate(-24 970 520)"/><ellipse cx="970" cy="508.7" rx="108.0" ry="34.6" fill="none" stroke="#2f6fbb" stroke-opacity="0.24" stroke-width="1.5"/><ellipse cx="970" cy="520" rx="36.7" ry="108.0" fill="none" stroke="#2f6fbb" stroke-opacity="0.18" stroke-width="1.5" transform="rotate(-12 970 520)"/><ellipse cx="970" cy="520.0" rx="108.0" ry="34.6" fill="none" stroke="#2f6fbb" stroke-opacity="0.24" stroke-width="1.5"/><ellipse cx="970" cy="520" rx="36.7" ry="108.0" fill="none" stroke="#2f6fbb" stroke-opacity="0.18" stroke-width="1.5" transform="rotate(0 970 520)"/><ellipse cx="970" cy="531.3" rx="108.0" ry="34.6" fill="none" stroke="#2f6fbb" stroke-opacity="0.24" stroke-width="1.5"/><ellipse cx="970" cy="520" rx="36.7" ry="108.0" fill="none" stroke="#2f6fbb" stroke-opacity="0.18" stroke-width="1.5" transform="rotate(12 970 520)"/><ellipse cx="970" cy="542.7" rx="108.0" ry="34.6" fill="none" stroke="#2f6fbb" stroke-opacity="0.24" stroke-width="1.5"/><ellipse cx="970" cy="520" rx="36.7" ry="108.0" fill="none" stroke="#2f6fbb" stroke-opacity="0.18" stroke-width="1.5" transform="rotate(24 970 520)"/><ellipse cx="970" cy="554.0" rx="108.0" ry="34.6" fill="none" stroke="#2f6fbb" stroke-opacity="0.24" stroke-width="1.5"/><ellipse cx="970" cy="520" rx="36.7" ry="108.0" fill="none" stroke="#2f6fbb" stroke-opacity="0.18" stroke-width="1.5" transform="rotate(36 970 520)"/>
        <line x1="970.0" y1="520.0" x2="1020.5" y2="498.6" stroke="#9b5de5" stroke-width="6" stroke-linecap="round" marker-end="url(#arrow)"/>
        <circle cx="1020.5" cy="498.6" r="7" fill="#9b5de5"/>
        <text x="907.4" y="662.0" class="label">|-i&gt;</text>
      </g>
    
  <text x="80" y="704" class="formula">|psi(theta, phi)&gt; = cos(theta/2)|0&gt; + e^(i phi) sin(theta/2)|1&gt;</text>

</svg>
