<svg xmlns="http://www.w3.org/2000/svg" width="1600" height="900" viewBox="0 0 1600 900" role="img" aria-label="Quantum Computing for Engineers cover">
  <defs>
    <linearGradient id="paper" x1="0" x2="1" y1="0" y2="1">
      <stop offset="0" stop-color="#fffaf1"/>
      <stop offset="0.54" stop-color="#f7efe1"/>
      <stop offset="1" stop-color="#e9f3f0"/>
    </linearGradient>
    <linearGradient id="night" x1="0" x2="1" y1="0" y2="1">
      <stop offset="0" stop-color="#101927"/>
      <stop offset="0.55" stop-color="#19323f"/>
      <stop offset="1" stop-color="#2a4f50"/>
    </linearGradient>
    <radialGradient id="glow" cx="50%" cy="44%" r="58%">
      <stop offset="0" stop-color="#f7d98c" stop-opacity="0.55"/>
      <stop offset="0.52" stop-color="#0f8b8d" stop-opacity="0.22"/>
      <stop offset="1" stop-color="#101927" stop-opacity="0"/>
    </radialGradient>
    <filter id="softShadow" x="-20%" y="-20%" width="140%" height="140%">
      <feDropShadow dx="0" dy="16" stdDeviation="18" flood-color="#14202e" flood-opacity="0.18"/>
    </filter>
    <marker id="arrow" markerWidth="12" markerHeight="12" refX="10" refY="6" orient="auto">
      <path d="M 0 0 L 12 6 L 0 12 z" fill="context-stroke"/>
    </marker>
    <style>
      .title { font-family: "Iowan Old Style", "Palatino Linotype", Georgia, serif; font-size: 54px; font-weight: 700; fill: #14202e; }
      .h2 { font-family: Avenir Next, Segoe UI, Helvetica, Arial, sans-serif; font-size: 28px; font-weight: 700; fill: #14202e; }
      .label { font-family: Avenir Next, Segoe UI, Helvetica, Arial, sans-serif; font-size: 19px; fill: #14202e; }
      .small { font-family: Avenir Next, Segoe UI, Helvetica, Arial, sans-serif; font-size: 15px; fill: #5d6877; }
      .formula { font-family: "SFMono-Regular", Menlo, Consolas, monospace; font-size: 18px; fill: #14202e; }
      .hair { stroke: rgba(20,32,46,0.16); stroke-width: 1.2; }
      .axis { stroke: rgba(20,32,46,0.42); stroke-width: 2; }
    </style>
    
  </defs>
  
  <rect width="1600" height="900" fill="url(#night)"/>
  <rect width="1600" height="900" fill="url(#glow)"/>
  <g opacity="0.9"><circle cx="88" cy="96" r="2" fill="#0f8b8d" fill-opacity="0.34"/><circle cx="225" cy="179" r="3" fill="#f2b84b" fill-opacity="0.34"/><circle cx="362" cy="262" r="4" fill="#e76f51" fill-opacity="0.34"/><circle cx="499" cy="345" r="5" fill="#2f6fbb" fill-opacity="0.34"/><circle cx="636" cy="428" r="6" fill="#3a9f6b" fill-opacity="0.34"/><circle cx="773" cy="511" r="2" fill="#0f8b8d" fill-opacity="0.34"/><circle cx="910" cy="594" r="3" fill="#f2b84b" fill-opacity="0.34"/><circle cx="1047" cy="677" r="4" fill="#e76f51" fill-opacity="0.34"/><circle cx="1184" cy="120" r="5" fill="#2f6fbb" fill-opacity="0.34"/><circle cx="1321" cy="203" r="6" fill="#3a9f6b" fill-opacity="0.34"/><circle cx="1458" cy="286" r="2" fill="#0f8b8d" fill-opacity="0.34"/><circle cx="185" cy="369" r="3" fill="#f2b84b" fill-opacity="0.34"/><circle cx="322" cy="452" r="4" fill="#e76f51" fill-opacity="0.34"/><circle cx="459" cy="535" r="5" fill="#2f6fbb" fill-opacity="0.34"/><circle cx="596" cy="618" r="6" fill="#3a9f6b" fill-opacity="0.34"/><circle cx="733" cy="701" r="2" fill="#0f8b8d" fill-opacity="0.34"/><circle cx="870" cy="144" r="3" fill="#f2b84b" fill-opacity="0.34"/><circle cx="1007" cy="227" r="4" fill="#e76f51" fill-opacity="0.34"/><circle cx="1144" cy="310" r="5" fill="#2f6fbb" fill-opacity="0.34"/><circle cx="1281" cy="393" r="6" fill="#3a9f6b" fill-opacity="0.34"/><circle cx="1418" cy="476" r="2" fill="#0f8b8d" fill-opacity="0.34"/><circle cx="145" cy="559" r="3" fill="#f2b84b" fill-opacity="0.34"/><circle cx="282" cy="642" r="4" fill="#e76f51" fill-opacity="0.34"/><circle cx="419" cy="725" r="5" fill="#2f6fbb" fill-opacity="0.34"/><circle cx="556" cy="168" r="6" fill="#3a9f6b" fill-opacity="0.34"/><circle cx="693" cy="251" r="2" fill="#0f8b8d" fill-opacity="0.34"/><circle cx="830" cy="334" r="3" fill="#f2b84b" fill-opacity="0.34"/><circle cx="967" cy="417" r="4" fill="#e76f51" fill-opacity="0.34"/><circle cx="1104" cy="500" r="5" fill="#2f6fbb" fill-opacity="0.34"/><circle cx="1241" cy="583" r="6" fill="#3a9f6b" fill-opacity="0.34"/><circle cx="1378" cy="666" r="2" fill="#0f8b8d" fill-opacity="0.34"/><circle cx="105" cy="109" r="3" fill="#f2b84b" fill-opacity="0.34"/><circle cx="242" cy="192" r="4" fill="#e76f51" fill-opacity="0.34"/><circle cx="379" cy="275" r="5" fill="#2f6fbb" fill-opacity="0.34"/></g>
  <path d="M 0.0 710.0 L 8.9 716.9 L 17.9 723.8 L 26.8 730.7 L 35.8 737.4 L 44.7 743.9 L 53.6 750.2 L 62.6 756.3 L 71.5 762.1 L 80.4 767.6 L 89.4 772.8 L 98.3 777.6 L 107.3 782.0 L 116.2 785.9 L 125.1 789.4 L 134.1 792.5 L 143.0 795.0 L 152.0 797.0 L 160.9 798.5 L 169.8 799.5 L 178.8 800.0 L 187.7 799.9 L 196.6 799.3 L 205.6 798.1 L 214.5 796.4 L 223.5 794.2 L 232.4 791.5 L 241.3 788.4 L 250.3 784.7 L 259.2 780.6 L 268.2 776.1 L 277.1 771.2 L 286.0 765.9 L 295.0 760.3 L 303.9 754.4 L 312.8 748.2 L 321.8 741.8 L 330.7 735.2 L 339.7 728.5 L 348.6 721.7 L 357.5 714.7 L 366.5 707.8 L 375.4 700.9 L 384.4 694.0 L 393.3 687.2 L 402.2 680.5 L 411.2 674.1 L 420.1 667.8 L 429.1 661.8 L 438.0 656.1 L 446.9 650.7 L 455.9 645.6 L 464.8 641.0 L 473.7 636.7 L 482.7 632.9 L 491.6 629.6 L 500.6 626.7 L 509.5 624.3 L 518.4 622.4 L 527.4 621.1 L 536.3 620.3 L 545.3 620.0 L 554.2 620.3 L 563.1 621.0 L 572.1 622.4 L 581.0 624.2 L 589.9 626.6 L 598.9 629.4 L 607.8 632.8 L 616.8 636.5 L 625.7 640.8 L 634.6 645.4 L 643.6 650.4 L 652.5 655.8 L 661.5 661.5 L 670.4 667.5 L 679.3 673.8 L 688.3 680.2 L 697.2 686.9 L 706.1 693.7 L 715.1 700.5 L 724.0 707.5 L 733.0 714.4 L 741.9 721.3 L 750.8 728.2 L 759.8 734.9 L 768.7 741.5 L 777.7 747.9 L 786.6 754.1 L 795.5 760.1 L 804.5 765.7 L 813.4 771.0 L 822.3 775.9 L 831.3 780.4 L 840.2 784.5 L 849.2 788.2 L 858.1 791.4 L 867.0 794.1 L 876.0 796.3 L 884.9 798.0 L 893.9 799.2 L 902.8 799.9 L 911.7 800.0 L 920.7 799.6 L 929.6 798.6 L 938.5 797.1 L 947.5 795.1 L 956.4 792.6 L 965.4 789.6 L 974.3 786.1 L 983.2 782.2 L 992.2 777.8 L 1001.1 773.0 L 1010.1 767.9 L 1019.0 762.4 L 1027.9 756.6 L 1036.9 750.5 L 1045.8 744.2 L 1054.7 737.7 L 1063.7 731.0 L 1072.6 724.2 L 1081.6 717.3 L 1090.5 710.3 L 1099.4 703.4 L 1108.4 696.5 L 1117.3 689.6 L 1126.3 682.9 L 1135.2 676.4 L 1144.1 670.1 L 1153.1 664.0 L 1162.0 658.1 L 1170.9 652.6 L 1179.9 647.4 L 1188.8 642.6 L 1197.8 638.2 L 1206.7 634.2 L 1215.6 630.7 L 1224.6 627.7 L 1233.5 625.1 L 1242.5 623.1 L 1251.4 621.5 L 1260.3 620.5 L 1269.3 620.0 L 1278.2 620.1 L 1287.2 620.7 L 1296.1 621.8 L 1305.0 623.5 L 1314.0 625.7 L 1322.9 628.3 L 1331.8 631.5 L 1340.8 635.1 L 1349.7 639.2 L 1358.7 643.7 L 1367.6 648.6 L 1376.5 653.8 L 1385.5 659.4 L 1394.4 665.3 L 1403.4 671.5 L 1412.3 677.9 L 1421.2 684.5 L 1430.2 691.2 L 1439.1 698.0 L 1448.0 704.9 L 1457.0 711.9 L 1465.9 718.8 L 1474.9 725.7 L 1483.8 732.5 L 1492.7 739.2 L 1501.7 745.6 L 1510.6 751.9 L 1519.6 757.9 L 1528.5 763.7 L 1537.4 769.1 L 1546.4 774.1 L 1555.3 778.8 L 1564.2 783.1 L 1573.2 786.9 L 1582.1 790.3 L 1591.1 793.2 L 1600.0 795.6" fill="none" stroke="#f2b84b" stroke-width="110" stroke-opacity="0.07"/>
  <path d="M 120.0 387.4 L 127.6 392.7 L 135.2 397.7 L 142.8 402.5 L 150.4 406.7 L 158.0 410.4 L 165.6 413.5 L 173.2 415.8 L 180.8 417.3 L 188.4 418.0 L 196.0 417.8 L 203.6 416.8 L 211.2 415.0 L 218.8 412.4 L 226.4 409.1 L 234.0 405.2 L 241.6 400.7 L 249.2 395.9 L 256.8 390.7 L 264.4 385.4 L 272.0 380.0 L 279.6 374.8 L 287.2 369.7 L 294.7 365.0 L 302.3 360.8 L 309.9 357.2 L 317.5 354.3 L 325.1 352.0 L 332.7 350.6 L 340.3 350.0 L 347.9 350.3 L 355.5 351.4 L 363.1 353.3 L 370.7 355.9 L 378.3 359.3 L 385.9 363.3 L 393.5 367.8 L 401.1 372.7 L 408.7 377.9 L 416.3 383.2 L 423.9 388.6 L 431.5 393.8 L 439.1 398.8 L 446.7 403.4 L 454.3 407.6 L 461.9 411.2 L 469.5 414.0 L 477.1 416.2 L 484.7 417.5 L 492.3 418.0 L 499.9 417.6 L 507.5 416.5 L 515.1 414.5 L 522.7 411.7 L 530.3 408.3 L 537.9 404.2 L 545.5 399.7 L 553.1 394.7 L 560.7 389.5 L 568.3 384.2 L 575.9 378.8 L 583.5 373.6 L 591.1 368.6 L 598.7 364.1 L 606.3 360.0 L 613.9 356.5 L 621.5 353.7 L 629.1 351.6 L 636.6 350.4 L 644.2 350.0 L 651.8 350.4 L 659.4 351.7 L 667.0 353.8 L 674.6 356.6 L 682.2 360.1 L 689.8 364.3 L 697.4 368.9 L 705.0 373.8 L 712.6 379.1 L 720.2 384.4 L 727.8 389.8 L 735.4 395.0 L 743.0 399.9 L 750.6 404.4 L 758.2 408.4 L 765.8 411.9 L 773.4 414.6 L 781.0 416.5 L 788.6 417.7 L 796.2 418.0 L 803.8 417.5 L 811.4 416.1 L 819.0 413.9 L 826.6 411.0 L 834.2 407.4 L 841.8 403.3 L 849.4 398.6 L 857.0 393.6 L 864.6 388.3 L 872.2 383.0 L 879.8 377.7 L 887.4 372.5 L 895.0 367.6 L 902.6 363.1 L 910.2 359.2 L 917.8 355.8 L 925.4 353.2 L 933.0 351.3 L 940.6 350.2 L 948.2 350.0 L 955.8 350.7 L 963.4 352.1 L 970.9 354.4 L 978.5 357.4 L 986.1 361.0 L 993.7 365.2 L 1001.3 369.9 L 1008.9 375.0 L 1016.5 380.2 L 1024.1 385.6 L 1031.7 390.9 L 1039.3 396.1 L 1046.9 400.9 L 1054.5 405.4 L 1062.1 409.3 L 1069.7 412.5 L 1077.3 415.1 L 1084.9 416.9 L 1092.5 417.8 L 1100.1 417.9 L 1107.7 417.2 L 1115.3 415.7 L 1122.9 413.3 L 1130.5 410.3 L 1138.1 406.5 L 1145.7 402.3 L 1153.3 397.5 L 1160.9 392.4 L 1168.5 387.2 L 1176.1 381.8 L 1183.7 376.5 L 1191.3 371.4 L 1198.9 366.6 L 1206.5 362.2 L 1214.1 358.4 L 1221.7 355.2 L 1229.3 352.7 L 1236.9 351.0 L 1244.5 350.1 L 1252.1 350.1 L 1259.7 350.9 L 1267.3 352.5 L 1274.9 355.0 L 1282.5 358.1 L 1290.1 361.9 L 1297.7 366.2 L 1305.3 371.0 L 1312.8 376.1 L 1320.4 381.4 L 1328.0 386.8 L 1335.6 392.1 L 1343.2 397.2 L 1350.8 402.0 L 1358.4 406.3 L 1366.0 410.0 L 1373.6 413.2 L 1381.2 415.5 L 1388.8 417.1 L 1396.4 417.9 L 1404.0 417.9 L 1411.6 416.9 L 1419.2 415.2 L 1426.8 412.7 L 1434.4 409.5 L 1442.0 405.6 L 1449.6 401.2 L 1457.2 396.4 L 1464.8 391.3 L 1472.4 386.0 L 1480.0 380.6" fill="none" stroke="#0f8b8d" stroke-width="5" stroke-opacity="0.52"/><path d="M 120.0 465.0 L 127.6 464.3 L 135.2 462.6 L 142.8 460.0 L 150.4 456.6 L 158.0 452.3 L 165.6 447.4 L 173.2 441.9 L 180.8 436.0 L 188.4 429.8 L 196.0 423.5 L 203.6 417.2 L 211.2 411.1 L 218.8 405.4 L 226.4 400.2 L 234.0 395.5 L 241.6 391.7 L 249.2 388.6 L 256.8 386.4 L 264.4 385.2 L 272.0 385.0 L 279.6 385.8 L 287.2 387.6 L 294.7 390.3 L 302.3 393.9 L 309.9 398.2 L 317.5 403.2 L 325.1 408.8 L 332.7 414.7 L 340.3 420.9 L 347.9 427.2 L 355.5 433.5 L 363.1 439.5 L 370.7 445.2 L 378.3 450.4 L 385.9 454.9 L 393.5 458.7 L 401.1 461.7 L 408.7 463.7 L 416.3 464.8 L 423.9 464.9 L 431.5 464.0 L 439.1 462.1 L 446.7 459.3 L 454.3 455.7 L 461.9 451.3 L 469.5 446.2 L 477.1 440.6 L 484.7 434.6 L 492.3 428.4 L 499.9 422.1 L 507.5 415.8 L 515.1 409.8 L 522.7 404.2 L 530.3 399.1 L 537.9 394.6 L 545.5 390.9 L 553.1 388.0 L 560.7 386.1 L 568.3 385.1 L 575.9 385.1 L 583.5 386.1 L 591.1 388.1 L 598.7 391.0 L 606.3 394.8 L 613.9 399.3 L 621.5 404.4 L 629.1 410.0 L 636.6 416.1 L 644.2 422.3 L 651.8 428.6 L 659.4 434.8 L 667.0 440.8 L 674.6 446.4 L 682.2 451.4 L 689.8 455.8 L 697.4 459.5 L 705.0 462.2 L 712.6 464.1 L 720.2 464.9 L 727.8 464.8 L 735.4 463.7 L 743.0 461.6 L 750.6 458.6 L 758.2 454.8 L 765.8 450.2 L 773.4 445.0 L 781.0 439.3 L 788.6 433.2 L 796.2 427.0 L 803.8 420.7 L 811.4 414.5 L 819.0 408.5 L 826.6 403.0 L 834.2 398.0 L 841.8 393.7 L 849.4 390.2 L 857.0 387.5 L 864.6 385.8 L 872.2 385.0 L 879.8 385.3 L 887.4 386.5 L 895.0 388.7 L 902.6 391.8 L 910.2 395.7 L 917.8 400.3 L 925.4 405.6 L 933.0 411.4 L 940.6 417.4 L 948.2 423.7 L 955.8 430.0 L 963.4 436.2 L 970.9 442.1 L 978.5 447.6 L 986.1 452.5 L 993.7 456.7 L 1001.3 460.2 L 1008.9 462.7 L 1016.5 464.3 L 1024.1 465.0 L 1031.7 464.6 L 1039.3 463.3 L 1046.9 461.0 L 1054.5 457.8 L 1062.1 453.8 L 1069.7 449.1 L 1077.3 443.8 L 1084.9 438.0 L 1092.5 431.9 L 1100.1 425.6 L 1107.7 419.3 L 1115.3 413.1 L 1122.9 407.3 L 1130.5 401.9 L 1138.1 397.0 L 1145.7 392.9 L 1153.3 389.5 L 1160.9 387.1 L 1168.5 385.5 L 1176.1 385.0 L 1183.7 385.5 L 1191.3 386.9 L 1198.9 389.3 L 1206.5 392.6 L 1214.1 396.7 L 1221.7 401.5 L 1229.3 406.8 L 1236.9 412.7 L 1244.5 418.8 L 1252.1 425.1 L 1259.7 431.4 L 1267.3 437.5 L 1274.9 443.4 L 1282.5 448.7 L 1290.1 453.5 L 1297.7 457.6 L 1305.3 460.8 L 1312.8 463.2 L 1320.4 464.6 L 1328.0 465.0 L 1335.6 464.4 L 1343.2 462.9 L 1350.8 460.4 L 1358.4 457.0 L 1366.0 452.8 L 1373.6 448.0 L 1381.2 442.5 L 1388.8 436.6 L 1396.4 430.5 L 1404.0 424.2 L 1411.6 417.9 L 1419.2 411.8 L 1426.8 406.0 L 1434.4 400.7 L 1442.0 396.0 L 1449.6 392.0 L 1457.2 388.9 L 1464.8 386.6 L 1472.4 385.3 L 1480.0 385.0" fill="none" stroke="#f2b84b" stroke-width="6" stroke-opacity="0.52"/><path d="M 120.0 467.9 L 127.6 460.7 L 135.2 453.5 L 142.8 446.7 L 150.4 440.4 L 158.0 434.7 L 165.6 429.8 L 173.2 425.8 L 180.8 422.8 L 188.4 420.8 L 196.0 420.0 L 203.6 420.4 L 211.2 421.8 L 218.8 424.4 L 226.4 428.0 L 234.0 432.6 L 241.6 437.9 L 249.2 444.0 L 256.8 450.7 L 264.4 457.7 L 272.0 464.9 L 279.6 472.1 L 287.2 479.2 L 294.7 486.0 L 302.3 492.3 L 309.9 497.9 L 317.5 502.7 L 325.1 506.6 L 332.7 509.5 L 340.3 511.3 L 347.9 512.0 L 355.5 511.5 L 363.1 509.9 L 370.7 507.2 L 378.3 503.5 L 385.9 498.9 L 393.5 493.4 L 401.1 487.3 L 408.7 480.6 L 416.3 473.5 L 423.9 466.3 L 431.5 459.1 L 439.1 452.0 L 446.7 445.3 L 454.3 439.1 L 461.9 433.5 L 469.5 428.8 L 477.1 425.0 L 484.7 422.2 L 492.3 420.6 L 499.9 420.0 L 507.5 420.6 L 515.1 422.3 L 522.7 425.1 L 530.3 428.9 L 537.9 433.7 L 545.5 439.2 L 553.1 445.5 L 560.7 452.2 L 568.3 459.3 L 575.9 466.5 L 583.5 473.7 L 591.1 480.8 L 598.7 487.4 L 606.3 493.6 L 613.9 499.0 L 621.5 503.7 L 629.1 507.3 L 636.6 510.0 L 644.2 511.6 L 651.8 512.0 L 659.4 511.3 L 667.0 509.4 L 674.6 506.5 L 682.2 502.6 L 689.8 497.7 L 697.4 492.1 L 705.0 485.8 L 712.6 479.0 L 720.2 471.9 L 727.8 464.7 L 735.4 457.5 L 743.0 450.5 L 750.6 443.8 L 758.2 437.8 L 765.8 432.4 L 773.4 427.9 L 781.0 424.3 L 788.6 421.8 L 796.2 420.3 L 803.8 420.0 L 811.4 420.9 L 819.0 422.8 L 826.6 425.9 L 834.2 429.9 L 841.8 434.9 L 849.4 440.6 L 857.0 446.9 L 864.6 453.7 L 872.2 460.9 L 879.8 468.1 L 887.4 475.3 L 895.0 482.3 L 902.6 488.9 L 910.2 494.9 L 917.8 500.1 L 925.4 504.6 L 933.0 508.0 L 940.6 510.4 L 948.2 511.8 L 955.8 511.9 L 963.4 511.0 L 970.9 508.9 L 978.5 505.7 L 986.1 501.6 L 993.7 496.5 L 1001.3 490.8 L 1008.9 484.3 L 1016.5 477.5 L 1024.1 470.3 L 1031.7 463.1 L 1039.3 455.9 L 1046.9 449.0 L 1054.5 442.4 L 1062.1 436.5 L 1069.7 431.3 L 1077.3 427.0 L 1084.9 423.7 L 1092.5 421.4 L 1100.1 420.2 L 1107.7 420.1 L 1115.3 421.2 L 1122.9 423.4 L 1130.5 426.7 L 1138.1 430.9 L 1145.7 436.1 L 1153.3 441.9 L 1160.9 448.4 L 1168.5 455.3 L 1176.1 462.5 L 1183.7 469.7 L 1191.3 476.9 L 1198.9 483.8 L 1206.5 490.2 L 1214.1 496.1 L 1221.7 501.2 L 1229.3 505.4 L 1236.9 508.7 L 1244.5 510.8 L 1252.1 511.9 L 1259.7 511.8 L 1267.3 510.6 L 1274.9 508.3 L 1282.5 504.9 L 1290.1 500.5 L 1297.7 495.3 L 1305.3 489.4 L 1312.8 482.9 L 1320.4 475.9 L 1328.0 468.7 L 1335.6 461.5 L 1343.2 454.3 L 1350.8 447.5 L 1358.4 441.1 L 1366.0 435.3 L 1373.6 430.3 L 1381.2 426.2 L 1388.8 423.1 L 1396.4 421.0 L 1404.0 420.1 L 1411.6 420.3 L 1419.2 421.6 L 1426.8 424.1 L 1434.4 427.6 L 1442.0 432.0 L 1449.6 437.3 L 1457.2 443.3 L 1464.8 449.9 L 1472.4 456.9 L 1480.0 464.1" fill="none" stroke="#e76f51" stroke-width="7" stroke-opacity="0.52"/><path d="M 120.0 461.7 L 127.6 458.2 L 135.2 456.0 L 142.8 455.0 L 150.4 455.4 L 158.0 457.0 L 165.6 459.9 L 173.2 463.9 L 180.8 469.0 L 188.4 475.1 L 196.0 481.9 L 203.6 489.4 L 211.2 497.3 L 218.8 505.5 L 226.4 513.6 L 234.0 521.7 L 241.6 529.3 L 249.2 536.5 L 256.8 542.8 L 264.4 548.3 L 272.0 552.8 L 279.6 556.1 L 287.2 558.2 L 294.7 559.0 L 302.3 558.5 L 309.9 556.8 L 317.5 553.8 L 325.1 549.6 L 332.7 544.4 L 340.3 538.2 L 347.9 531.3 L 355.5 523.8 L 363.1 515.8 L 370.7 507.6 L 378.3 499.4 L 385.9 491.4 L 393.5 483.8 L 401.1 476.8 L 408.7 470.5 L 416.3 465.1 L 423.9 460.8 L 431.5 457.6 L 439.1 455.7 L 446.7 455.0 L 454.3 455.6 L 461.9 457.5 L 469.5 460.6 L 477.1 464.9 L 484.7 470.3 L 492.3 476.5 L 499.9 483.5 L 507.5 491.1 L 515.1 499.1 L 522.7 507.3 L 530.3 515.5 L 537.9 523.4 L 545.5 531.0 L 553.1 537.9 L 560.7 544.1 L 568.3 549.4 L 575.9 553.6 L 583.5 556.7 L 591.1 558.5 L 598.7 559.0 L 606.3 558.2 L 613.9 556.2 L 621.5 552.9 L 629.1 548.5 L 636.6 543.1 L 644.2 536.7 L 651.8 529.7 L 659.4 522.0 L 667.0 514.0 L 674.6 505.8 L 682.2 497.6 L 689.8 489.7 L 697.4 482.2 L 705.0 475.3 L 712.6 469.2 L 720.2 464.1 L 727.8 460.0 L 735.4 457.1 L 743.0 455.4 L 750.6 455.0 L 758.2 455.9 L 765.8 458.1 L 773.4 461.5 L 781.0 466.0 L 788.6 471.6 L 796.2 478.0 L 803.8 485.2 L 811.4 492.9 L 819.0 500.9 L 826.6 509.1 L 834.2 517.3 L 841.8 525.1 L 849.4 532.6 L 857.0 539.4 L 864.6 545.4 L 872.2 550.4 L 879.8 554.4 L 887.4 557.2 L 895.0 558.7 L 902.6 558.9 L 910.2 557.9 L 917.8 555.6 L 925.4 552.0 L 933.0 547.4 L 940.6 541.7 L 948.2 535.2 L 955.8 528.0 L 963.4 520.3 L 970.9 512.2 L 978.5 504.0 L 986.1 495.9 L 993.7 488.0 L 1001.3 480.6 L 1008.9 473.9 L 1016.5 468.0 L 1024.1 463.1 L 1031.7 459.2 L 1039.3 456.6 L 1046.9 455.2 L 1054.5 455.1 L 1062.1 456.3 L 1069.7 458.8 L 1077.3 462.4 L 1084.9 467.2 L 1092.5 472.9 L 1100.1 479.5 L 1107.7 486.8 L 1115.3 494.6 L 1122.9 502.7 L 1130.5 510.9 L 1138.1 519.0 L 1145.7 526.8 L 1153.3 534.2 L 1160.9 540.8 L 1168.5 546.6 L 1176.1 551.4 L 1183.7 555.1 L 1191.3 557.6 L 1198.9 558.9 L 1206.5 558.8 L 1214.1 557.5 L 1221.7 554.9 L 1229.3 551.1 L 1236.9 546.2 L 1244.5 540.4 L 1252.1 533.7 L 1259.7 526.3 L 1267.3 518.5 L 1274.9 510.4 L 1282.5 502.2 L 1290.1 494.1 L 1297.7 486.3 L 1305.3 479.1 L 1312.8 472.5 L 1320.4 466.8 L 1328.0 462.1 L 1335.6 458.6 L 1343.2 456.2 L 1350.8 455.1 L 1358.4 455.3 L 1366.0 456.7 L 1373.6 459.5 L 1381.2 463.4 L 1388.8 468.4 L 1396.4 474.3 L 1404.0 481.1 L 1411.6 488.5 L 1419.2 496.4 L 1426.8 504.5 L 1434.4 512.7 L 1442.0 520.8 L 1449.6 528.5 L 1457.2 535.7 L 1464.8 542.2 L 1472.4 547.7 L 1480.0 552.3" fill="none" stroke="#2f6fbb" stroke-width="8" stroke-opacity="0.52"/>
  <g opacity="0.95"><ellipse cx="1170" cy="430" rx="90.28" ry="35.519999999999996" fill="none" stroke="#d6f6ef" stroke-opacity="0.18" stroke-width="2"/><ellipse cx="1170" cy="430" rx="38.480000000000004" ry="75.48" fill="none" stroke="#d6f6ef" stroke-opacity="0.14" stroke-width="2" transform="rotate(-28 1170 430)"/><ellipse cx="1170" cy="430" rx="124.44" ry="48.96" fill="none" stroke="#d6f6ef" stroke-opacity="0.18" stroke-width="2"/><ellipse cx="1170" cy="430" rx="53.04" ry="104.04" fill="none" stroke="#d6f6ef" stroke-opacity="0.14" stroke-width="2" transform="rotate(-28 1170 430)"/><ellipse cx="1170" cy="430" rx="158.6" ry="62.4" fill="none" stroke="#d6f6ef" stroke-opacity="0.18" stroke-width="2"/><ellipse cx="1170" cy="430" rx="67.60000000000001" ry="132.6" fill="none" stroke="#d6f6ef" stroke-opacity="0.14" stroke-width="2" transform="rotate(-28 1170 430)"/><ellipse cx="1170" cy="430" rx="192.76" ry="75.84" fill="none" stroke="#d6f6ef" stroke-opacity="0.18" stroke-width="2"/><ellipse cx="1170" cy="430" rx="82.16" ry="161.16" fill="none" stroke="#d6f6ef" stroke-opacity="0.14" stroke-width="2" transform="rotate(-28 1170 430)"/><ellipse cx="1170" cy="430" rx="226.92" ry="89.28" fill="none" stroke="#d6f6ef" stroke-opacity="0.18" stroke-width="2"/><ellipse cx="1170" cy="430" rx="96.72" ry="189.72" fill="none" stroke="#d6f6ef" stroke-opacity="0.14" stroke-width="2" transform="rotate(-28 1170 430)"/><ellipse cx="1170" cy="430" rx="261.08" ry="102.72" fill="none" stroke="#d6f6ef" stroke-opacity="0.18" stroke-width="2"/><ellipse cx="1170" cy="430" rx="111.28" ry="218.28" fill="none" stroke="#d6f6ef" stroke-opacity="0.14" stroke-width="2" transform="rotate(-28 1170 430)"/><line x1="1170.0" y1="430.0" x2="1170.0" y2="205.0" stroke="#d6f6ef" stroke-width="5" stroke-linecap="round" marker-end="url(#arrow)"/>
<line x1="1170.0" y1="430.0" x2="1398.0" y2="490.0" stroke="#f2b84b" stroke-width="6" stroke-linecap="round" marker-end="url(#arrow)"/>
<line x1="1170.0" y1="430.0" x2="1018.0" y2="326.0" stroke="#e76f51" stroke-width="6" stroke-linecap="round" marker-end="url(#arrow)"/>
<circle cx="1170" cy="430" r="9" fill="#fff7d1"/></g>
  <g transform="translate(112 548)" opacity="0.6">
    <path d="M 0.0 10.1 L 3.2 12.4 L 6.5 14.6 L 9.7 16.6 L 13.0 18.5 L 16.2 20.2 L 19.4 21.7 L 22.7 23.0 L 25.9 24.1 L 29.2 24.9 L 32.4 25.5 L 35.6 25.9 L 38.9 26.0 L 42.1 25.9 L 45.4 25.5 L 48.6 24.8 L 51.8 23.9 L 55.1 22.8 L 58.3 21.5 L 61.6 19.9 L 64.8 18.2 L 68.0 16.3 L 71.3 14.2 L 74.5 12.0 L 77.8 9.7 L 81.0 7.3 L 84.2 4.8 L 87.5 2.3 L 90.7 -0.3 L 94.0 -2.8 L 97.2 -5.3 L 100.4 -7.8 L 103.7 -10.2 L 106.9 -12.5 L 110.2 -14.7 L 113.4 -16.7 L 116.6 -18.6 L 119.9 -20.3 L 123.1 -21.8 L 126.4 -23.1 L 129.6 -24.1 L 132.8 -25.0 L 136.1 -25.6 L 139.3 -25.9 L 142.6 -26.0 L 145.8 -25.8 L 149.1 -25.4 L 152.3 -24.8 L 155.5 -23.9 L 158.8 -22.8 L 162.0 -21.4 L 165.3 -19.9 L 168.5 -18.1 L 171.7 -16.2 L 175.0 -14.2 L 178.2 -11.9 L 181.5 -9.6 L 184.7 -7.2 L 187.9 -4.7 L 191.2 -2.2 L 194.4 0.4 L 197.7 2.9 L 200.9 5.4 L 204.1 7.9 L 207.4 10.3 L 210.6 12.6 L 213.9 14.8 L 217.1 16.8 L 220.3 18.7 L 223.6 20.3 L 226.8 21.8 L 230.1 23.1 L 233.3 24.2 L 236.5 25.0 L 239.8 25.6 L 243.0 25.9 L 246.3 26.0 L 249.5 25.8 L 252.7 25.4 L 256.0 24.8 L 259.2 23.9 L 262.5 22.7 L 265.7 21.4 L 268.9 19.8 L 272.2 18.1 L 275.4 16.2 L 278.7 14.1 L 281.9 11.9 L 285.1 9.5 L 288.4 7.1 L 291.6 4.6 L 294.9 2.1 L 298.1 -0.5 L 301.3 -3.0 L 304.6 -5.5 L 307.8 -8.0 L 311.1 -10.4 L 314.3 -12.7 L 317.5 -14.8 L 320.8 -16.9 L 324.0 -18.7 L 327.3 -20.4 L 330.5 -21.9 L 333.7 -23.2 L 337.0 -24.2 L 340.2 -25.0 L 343.5 -25.6 L 346.7 -25.9 L 349.9 -26.0 L 353.2 -25.8 L 356.4 -25.4 L 359.7 -24.7 L 362.9 -23.8 L 366.1 -22.7 L 369.4 -21.3 L 372.6 -19.8 L 375.9 -18.0 L 379.1 -16.1 L 382.3 -14.0 L 385.6 -11.8 L 388.8 -9.5 L 392.1 -7.0 L 395.3 -4.5 L 398.5 -2.0 L 401.8 0.5 L 405.0 3.1 L 408.3 5.6 L 411.5 8.1 L 414.7 10.5 L 418.0 12.7 L 421.2 14.9 L 424.5 16.9 L 427.7 18.8 L 430.9 20.5 L 434.2 21.9 L 437.4 23.2 L 440.7 24.2 L 443.9 25.0 L 447.2 25.6 L 450.4 25.9 L 453.6 26.0 L 456.9 25.8 L 460.1 25.4 L 463.4 24.7 L 466.6 23.8 L 469.8 22.6 L 473.1 21.3 L 476.3 19.7 L 479.6 17.9 L 482.8 16.0 L 486.0 13.9 L 489.3 11.7 L 492.5 9.4 L 495.8 6.9 L 499.0 4.5 L 502.2 1.9 L 505.5 -0.6 L 508.7 -3.2 L 512.0 -5.7 L 515.2 -8.2 L 518.4 -10.5 L 521.7 -12.8 L 524.9 -15.0 L 528.2 -17.0 L 531.4 -18.8 L 534.6 -20.5 L 537.9 -22.0 L 541.1 -23.2 L 544.4 -24.3 L 547.6 -25.1 L 550.8 -25.6 L 554.1 -25.9 L 557.3 -26.0 L 560.6 -25.8 L 563.8 -25.4 L 567.0 -24.7 L 570.3 -23.7 L 573.5 -22.6 L 576.8 -21.2 L 580.0 -19.6" fill="none" stroke="#0f8b8d" stroke-width="8"/>
    <path d="M 0.0 29.9 L 3.2 27.6 L 6.5 25.4 L 9.7 23.4 L 13.0 21.5 L 16.2 19.8 L 19.4 18.3 L 22.7 17.0 L 25.9 15.9 L 29.2 15.1 L 32.4 14.5 L 35.6 14.1 L 38.9 14.0 L 42.1 14.1 L 45.4 14.5 L 48.6 15.2 L 51.8 16.1 L 55.1 17.2 L 58.3 18.5 L 61.6 20.0 L 64.8 21.8 L 68.0 23.7 L 71.3 25.7 L 74.5 27.9 L 77.8 30.3 L 81.0 32.7 L 84.2 35.1 L 87.5 37.7 L 90.7 40.2 L 94.0 42.8 L 97.2 45.3 L 100.4 47.8 L 103.7 50.2 L 106.9 52.5 L 110.2 54.6 L 113.4 56.7 L 116.6 58.6 L 119.9 60.3 L 123.1 61.8 L 126.4 63.1 L 129.6 64.1 L 132.8 65.0 L 136.1 65.6 L 139.3 65.9 L 142.6 66.0 L 145.8 65.8 L 149.1 65.4 L 152.3 64.8 L 155.5 63.9 L 158.8 62.8 L 162.0 61.5 L 165.3 59.9 L 168.5 58.2 L 171.7 56.3 L 175.0 54.2 L 178.2 52.0 L 181.5 49.7 L 184.7 47.2 L 187.9 44.8 L 191.2 42.2 L 194.4 39.7 L 197.7 37.1 L 200.9 34.6 L 204.1 32.1 L 207.4 29.7 L 210.6 27.5 L 213.9 25.3 L 217.1 23.2 L 220.3 21.4 L 223.6 19.7 L 226.8 18.2 L 230.1 16.9 L 233.3 15.8 L 236.5 15.0 L 239.8 14.4 L 243.0 14.1 L 246.3 14.0 L 249.5 14.2 L 252.7 14.6 L 256.0 15.2 L 259.2 16.1 L 262.5 17.3 L 265.7 18.6 L 268.9 20.1 L 272.2 21.9 L 275.4 23.8 L 278.7 25.9 L 281.9 28.1 L 285.1 30.4 L 288.4 32.8 L 291.6 35.3 L 294.9 37.9 L 298.1 40.4 L 301.3 43.0 L 304.6 45.5 L 307.8 47.9 L 311.1 50.3 L 314.3 52.6 L 317.5 54.8 L 320.8 56.8 L 324.0 58.7 L 327.3 60.4 L 330.5 61.9 L 333.7 63.1 L 337.0 64.2 L 340.2 65.0 L 343.5 65.6 L 346.7 65.9 L 349.9 66.0 L 353.2 65.8 L 356.4 65.4 L 359.7 64.7 L 362.9 63.8 L 366.1 62.7 L 369.4 61.4 L 372.6 59.8 L 375.9 58.0 L 379.1 56.1 L 382.3 54.0 L 385.6 51.8 L 388.8 49.5 L 392.1 47.1 L 395.3 44.6 L 398.5 42.1 L 401.8 39.5 L 405.0 36.9 L 408.3 34.4 L 411.5 32.0 L 414.7 29.6 L 418.0 27.3 L 421.2 25.1 L 424.5 23.1 L 427.7 21.2 L 430.9 19.6 L 434.2 18.1 L 437.4 16.8 L 440.7 15.8 L 443.9 15.0 L 447.2 14.4 L 450.4 14.1 L 453.6 14.0 L 456.9 14.2 L 460.1 14.6 L 463.4 15.3 L 466.6 16.2 L 469.8 17.3 L 473.1 18.7 L 476.3 20.3 L 479.6 22.0 L 482.8 24.0 L 486.0 26.0 L 489.3 28.3 L 492.5 30.6 L 495.8 33.0 L 499.0 35.5 L 502.2 38.0 L 505.5 40.6 L 508.7 43.1 L 512.0 45.7 L 515.2 48.1 L 518.4 50.5 L 521.7 52.8 L 524.9 54.9 L 528.2 57.0 L 531.4 58.8 L 534.6 60.5 L 537.9 62.0 L 541.1 63.2 L 544.4 64.3 L 547.6 65.1 L 550.8 65.6 L 554.1 65.9 L 557.3 66.0 L 560.6 65.8 L 563.8 65.4 L 567.0 64.7 L 570.3 63.8 L 573.5 62.6 L 576.8 61.2 L 580.0 59.7" fill="none" stroke="#f2b84b" stroke-width="8"/>
    <circle cx="622" cy="20" r="18" fill="#e76f51"/>
  </g>

</svg>
