<svg xmlns="http://www.w3.org/2000/svg" viewBox="0 0 1000 620" width="1000" height="620">
<rect x="0" y="0" width="1000" height="620" fill="#fbfcff" stroke="none" stroke-width="2" rx="0"/>

<defs>
  <marker id="arrow" viewBox="0 0 10 10" refX="8" refY="5" markerWidth="7" markerHeight="7" orient="auto-start-reverse">
    <path d="M 0 0 L 10 5 L 0 10 z" fill="#1f2937"/>
  </marker>
  <linearGradient id="screenGlow" x1="0" x2="0" y1="0" y2="1">
    <stop offset="0%" stop-color="#dbeafe"/>
    <stop offset="50%" stop-color="#fef3c7"/>
    <stop offset="100%" stop-color="#dbeafe"/>
  </linearGradient>
</defs>

<text x="500" y="38" fill="#1f2937" font-size="25" font-weight="700" font-family="Inter, &quot;Noto Sans&quot;, &quot;DejaVu Sans&quot;, &quot;Arial Unicode MS&quot;, Arial, sans-serif" text-anchor="middle" dominant-baseline="middle">For θ = 60 deg, Z is flat while X and Y reveal phase</text>
<rect x="70" y="95" width="250" height="360" fill="#ffffff" stroke="#cbd5e1" stroke-width="2" rx="8"/>
<text x="195" y="127" fill="#2563eb" font-size="21" font-weight="700" font-family="Inter, &quot;Noto Sans&quot;, &quot;DejaVu Sans&quot;, &quot;Arial Unicode MS&quot;, Arial, sans-serif" text-anchor="middle" dominant-baseline="middle">Z basis</text>
<line x1="108" y1="399" x2="300" y2="399" stroke="#d7dde8" stroke-width="2" stroke-linecap="round"/>
<line x1="108" y1="169" x2="108" y2="399" stroke="#d7dde8" stroke-width="2" stroke-linecap="round"/>
<line x1="103" y1="399" x2="300" y2="399" stroke="#e5e7eb" stroke-width="1" stroke-linecap="round"/>
<text x="96" y="399" fill="#64748b" font-size="12" font-weight="500" font-family="Inter, &quot;Noto Sans&quot;, &quot;DejaVu Sans&quot;, &quot;Arial Unicode MS&quot;, Arial, sans-serif" text-anchor="end" dominant-baseline="middle">0.0</text>
<line x1="103" y1="284" x2="300" y2="284" stroke="#e5e7eb" stroke-width="1" stroke-linecap="round"/>
<text x="96" y="284" fill="#64748b" font-size="12" font-weight="500" font-family="Inter, &quot;Noto Sans&quot;, &quot;DejaVu Sans&quot;, &quot;Arial Unicode MS&quot;, Arial, sans-serif" text-anchor="end" dominant-baseline="middle">0.5</text>
<line x1="103" y1="169" x2="300" y2="169" stroke="#e5e7eb" stroke-width="1" stroke-linecap="round"/>
<text x="96" y="169" fill="#64748b" font-size="12" font-weight="500" font-family="Inter, &quot;Noto Sans&quot;, &quot;DejaVu Sans&quot;, &quot;Arial Unicode MS&quot;, Arial, sans-serif" text-anchor="end" dominant-baseline="middle">1.0</text>
<polyline points="108,226.5 109.067,226.5 110.133,226.5 111.2,226.5 112.267,226.5 113.333,226.5 114.4,226.5 115.467,226.5 116.533,226.5 117.6,226.5 118.667,226.5 119.733,226.5 120.8,226.5 121.867,226.5 122.933,226.5 124,226.5 125.067,226.5 126.133,226.5 127.2,226.5 128.267,226.5 129.333,226.5 130.4,226.5 131.467,226.5 132.533,226.5 133.6,226.5 134.667,226.5 135.733,226.5 136.8,226.5 137.867,226.5 138.933,226.5 140,226.5 141.067,226.5 142.133,226.5 143.2,226.5 144.267,226.5 145.333,226.5 146.4,226.5 147.467,226.5 148.533,226.5 149.6,226.5 150.667,226.5 151.733,226.5 152.8,226.5 153.867,226.5 154.933,226.5 156,226.5 157.067,226.5 158.133,226.5 159.2,226.5 160.267,226.5 161.333,226.5 162.4,226.5 163.467,226.5 164.533,226.5 165.6,226.5 166.667,226.5 167.733,226.5 168.8,226.5 169.867,226.5 170.933,226.5 172,226.5 173.067,226.5 174.133,226.5 175.2,226.5 176.267,226.5 177.333,226.5 178.4,226.5 179.467,226.5 180.533,226.5 181.6,226.5 182.667,226.5 183.733,226.5 184.8,226.5 185.867,226.5 186.933,226.5 188,226.5 189.067,226.5 190.133,226.5 191.2,226.5 192.267,226.5 193.333,226.5 194.4,226.5 195.467,226.5 196.533,226.5 197.6,226.5 198.667,226.5 199.733,226.5 200.8,226.5 201.867,226.5 202.933,226.5 204,226.5 205.067,226.5 206.133,226.5 207.2,226.5 208.267,226.5 209.333,226.5 210.4,226.5 211.467,226.5 212.533,226.5 213.6,226.5 214.667,226.5 215.733,226.5 216.8,226.5 217.867,226.5 218.933,226.5 220,226.5 221.067,226.5 222.133,226.5 223.2,226.5 224.267,226.5 225.333,226.5 226.4,226.5 227.467,226.5 228.533,226.5 229.6,226.5 230.667,226.5 231.733,226.5 232.8,226.5 233.867,226.5 234.933,226.5 236,226.5 237.067,226.5 238.133,226.5 239.2,226.5 240.267,226.5 241.333,226.5 242.4,226.5 243.467,226.5 244.533,226.5 245.6,226.5 246.667,226.5 247.733,226.5 248.8,226.5 249.867,226.5 250.933,226.5 252,226.5 253.067,226.5 254.133,226.5 255.2,226.5 256.267,226.5 257.333,226.5 258.4,226.5 259.467,226.5 260.533,226.5 261.6,226.5 262.667,226.5 263.733,226.5 264.8,226.5 265.867,226.5 266.933,226.5 268,226.5 269.067,226.5 270.133,226.5 271.2,226.5 272.267,226.5 273.333,226.5 274.4,226.5 275.467,226.5 276.533,226.5 277.6,226.5 278.667,226.5 279.733,226.5 280.8,226.5 281.867,226.5 282.933,226.5 284,226.5 285.067,226.5 286.133,226.5 287.2,226.5 288.267,226.5 289.333,226.5 290.4,226.5 291.467,226.5 292.533,226.5 293.6,226.5 294.667,226.5 295.733,226.5 296.8,226.5 297.867,226.5 298.933,226.5 300,226.5" fill="none" stroke="#2563eb" stroke-width="3.2" stroke-linecap="round" stroke-linejoin="round"/>
<line x1="108" y1="399" x2="108" y2="404" stroke="#64748b" stroke-width="1.5" stroke-linecap="round"/>
<text x="108" y="423" fill="#64748b" font-size="12" font-weight="500" font-family="Inter, &quot;Noto Sans&quot;, &quot;DejaVu Sans&quot;, &quot;Arial Unicode MS&quot;, Arial, sans-serif" text-anchor="middle" dominant-baseline="middle">0</text>
<line x1="156" y1="399" x2="156" y2="404" stroke="#64748b" stroke-width="1.5" stroke-linecap="round"/>
<line x1="204" y1="399" x2="204" y2="404" stroke="#64748b" stroke-width="1.5" stroke-linecap="round"/>
<text x="204" y="423" fill="#64748b" font-size="12" font-weight="500" font-family="Inter, &quot;Noto Sans&quot;, &quot;DejaVu Sans&quot;, &quot;Arial Unicode MS&quot;, Arial, sans-serif" text-anchor="middle" dominant-baseline="middle">π</text>
<line x1="252" y1="399" x2="252" y2="404" stroke="#64748b" stroke-width="1.5" stroke-linecap="round"/>
<line x1="300" y1="399" x2="300" y2="404" stroke="#64748b" stroke-width="1.5" stroke-linecap="round"/>
<text x="300" y="423" fill="#64748b" font-size="12" font-weight="500" font-family="Inter, &quot;Noto Sans&quot;, &quot;DejaVu Sans&quot;, &quot;Arial Unicode MS&quot;, Arial, sans-serif" text-anchor="middle" dominant-baseline="middle">2π</text>
<text x="195" y="421" fill="#2563eb" font-size="16" font-weight="700" font-family="Inter, &quot;Noto Sans&quot;, &quot;DejaVu Sans&quot;, &quot;Arial Unicode MS&quot;, Arial, sans-serif" text-anchor="middle" dominant-baseline="middle">P(Z=0)</text>
<rect x="370" y="95" width="250" height="360" fill="#ffffff" stroke="#cbd5e1" stroke-width="2" rx="8"/>
<text x="495" y="127" fill="#16a34a" font-size="21" font-weight="700" font-family="Inter, &quot;Noto Sans&quot;, &quot;DejaVu Sans&quot;, &quot;Arial Unicode MS&quot;, Arial, sans-serif" text-anchor="middle" dominant-baseline="middle">X basis</text>
<line x1="408" y1="399" x2="600" y2="399" stroke="#d7dde8" stroke-width="2" stroke-linecap="round"/>
<line x1="408" y1="169" x2="408" y2="399" stroke="#d7dde8" stroke-width="2" stroke-linecap="round"/>
<line x1="403" y1="399" x2="600" y2="399" stroke="#e5e7eb" stroke-width="1" stroke-linecap="round"/>
<text x="396" y="399" fill="#64748b" font-size="12" font-weight="500" font-family="Inter, &quot;Noto Sans&quot;, &quot;DejaVu Sans&quot;, &quot;Arial Unicode MS&quot;, Arial, sans-serif" text-anchor="end" dominant-baseline="middle">0.0</text>
<line x1="403" y1="284" x2="600" y2="284" stroke="#e5e7eb" stroke-width="1" stroke-linecap="round"/>
<text x="396" y="284" fill="#64748b" font-size="12" font-weight="500" font-family="Inter, &quot;Noto Sans&quot;, &quot;DejaVu Sans&quot;, &quot;Arial Unicode MS&quot;, Arial, sans-serif" text-anchor="end" dominant-baseline="middle">0.5</text>
<line x1="403" y1="169" x2="600" y2="169" stroke="#e5e7eb" stroke-width="1" stroke-linecap="round"/>
<text x="396" y="169" fill="#64748b" font-size="12" font-weight="500" font-family="Inter, &quot;Noto Sans&quot;, &quot;DejaVu Sans&quot;, &quot;Arial Unicode MS&quot;, Arial, sans-serif" text-anchor="end" dominant-baseline="middle">1.0</text>
<polyline points="408,184.407 409.067,184.468 410.133,184.65 411.2,184.953 412.267,185.376 413.333,185.92 414.4,186.583 415.467,187.365 416.533,188.265 417.6,189.282 418.667,190.413 419.733,191.659 420.8,193.017 421.867,194.486 422.933,196.065 424,197.75 425.067,199.54 426.133,201.434 427.2,203.428 428.267,205.52 429.333,207.707 430.4,209.988 431.467,212.359 432.533,214.817 433.6,217.359 434.667,219.983 435.733,222.684 436.8,225.461 437.867,228.308 438.933,231.224 440,234.204 441.067,237.244 442.133,240.341 443.2,243.492 444.267,246.692 445.333,249.937 446.4,253.224 447.467,256.548 448.533,259.906 449.6,263.293 450.667,266.706 451.733,270.139 452.8,273.59 453.867,277.053 454.933,280.524 456,284 457.067,287.476 458.133,290.947 459.2,294.41 460.267,297.861 461.333,301.294 462.4,304.707 463.467,308.094 464.533,311.452 465.6,314.776 466.667,318.063 467.733,321.308 468.8,324.508 469.867,327.659 470.933,330.756 472,333.796 473.067,336.776 474.133,339.692 475.2,342.539 476.267,345.316 477.333,348.017 478.4,350.641 479.467,353.183 480.533,355.641 481.6,358.012 482.667,360.293 483.733,362.48 484.8,364.572 485.867,366.566 486.933,368.46 488,370.25 489.067,371.935 490.133,373.514 491.2,374.983 492.267,376.341 493.333,377.587 494.4,378.718 495.467,379.735 496.533,380.635 497.6,381.417 498.667,382.08 499.733,382.624 500.8,383.047 501.867,383.35 502.933,383.532 504,383.593 505.067,383.532 506.133,383.35 507.2,383.047 508.267,382.624 509.333,382.08 510.4,381.417 511.467,380.635 512.533,379.735 513.6,378.718 514.667,377.587 515.733,376.341 516.8,374.983 517.867,373.514 518.933,371.935 520,370.25 521.067,368.46 522.133,366.566 523.2,364.572 524.267,362.48 525.333,360.293 526.4,358.012 527.467,355.641 528.533,353.183 529.6,350.641 530.667,348.017 531.733,345.316 532.8,342.539 533.867,339.692 534.933,336.776 536,333.796 537.067,330.756 538.133,327.659 539.2,324.508 540.267,321.308 541.333,318.063 542.4,314.776 543.467,311.452 544.533,308.094 545.6,304.707 546.667,301.294 547.733,297.861 548.8,294.41 549.867,290.947 550.933,287.476 552,284 553.067,280.524 554.133,277.053 555.2,273.59 556.267,270.139 557.333,266.706 558.4,263.293 559.467,259.906 560.533,256.548 561.6,253.224 562.667,249.937 563.733,246.692 564.8,243.492 565.867,240.341 566.933,237.244 568,234.204 569.067,231.224 570.133,228.308 571.2,225.461 572.267,222.684 573.333,219.983 574.4,217.359 575.467,214.817 576.533,212.359 577.6,209.988 578.667,207.707 579.733,205.52 580.8,203.428 581.867,201.434 582.933,199.54 584,197.75 585.067,196.065 586.133,194.486 587.2,193.017 588.267,191.659 589.333,190.413 590.4,189.282 591.467,188.265 592.533,187.365 593.6,186.583 594.667,185.92 595.733,185.376 596.8,184.953 597.867,184.65 598.933,184.468 600,184.407" fill="none" stroke="#16a34a" stroke-width="3.2" stroke-linecap="round" stroke-linejoin="round"/>
<line x1="408" y1="399" x2="408" y2="404" stroke="#64748b" stroke-width="1.5" stroke-linecap="round"/>
<text x="408" y="423" fill="#64748b" font-size="12" font-weight="500" font-family="Inter, &quot;Noto Sans&quot;, &quot;DejaVu Sans&quot;, &quot;Arial Unicode MS&quot;, Arial, sans-serif" text-anchor="middle" dominant-baseline="middle">0</text>
<line x1="456" y1="399" x2="456" y2="404" stroke="#64748b" stroke-width="1.5" stroke-linecap="round"/>
<line x1="504" y1="399" x2="504" y2="404" stroke="#64748b" stroke-width="1.5" stroke-linecap="round"/>
<text x="504" y="423" fill="#64748b" font-size="12" font-weight="500" font-family="Inter, &quot;Noto Sans&quot;, &quot;DejaVu Sans&quot;, &quot;Arial Unicode MS&quot;, Arial, sans-serif" text-anchor="middle" dominant-baseline="middle">π</text>
<line x1="552" y1="399" x2="552" y2="404" stroke="#64748b" stroke-width="1.5" stroke-linecap="round"/>
<line x1="600" y1="399" x2="600" y2="404" stroke="#64748b" stroke-width="1.5" stroke-linecap="round"/>
<text x="600" y="423" fill="#64748b" font-size="12" font-weight="500" font-family="Inter, &quot;Noto Sans&quot;, &quot;DejaVu Sans&quot;, &quot;Arial Unicode MS&quot;, Arial, sans-serif" text-anchor="middle" dominant-baseline="middle">2π</text>
<text x="495" y="421" fill="#16a34a" font-size="16" font-weight="700" font-family="Inter, &quot;Noto Sans&quot;, &quot;DejaVu Sans&quot;, &quot;Arial Unicode MS&quot;, Arial, sans-serif" text-anchor="middle" dominant-baseline="middle">P(X=+)</text>
<rect x="670" y="95" width="250" height="360" fill="#ffffff" stroke="#cbd5e1" stroke-width="2" rx="8"/>
<text x="795" y="127" fill="#7c3aed" font-size="21" font-weight="700" font-family="Inter, &quot;Noto Sans&quot;, &quot;DejaVu Sans&quot;, &quot;Arial Unicode MS&quot;, Arial, sans-serif" text-anchor="middle" dominant-baseline="middle">Y basis</text>
<line x1="708" y1="399" x2="900" y2="399" stroke="#d7dde8" stroke-width="2" stroke-linecap="round"/>
<line x1="708" y1="169" x2="708" y2="399" stroke="#d7dde8" stroke-width="2" stroke-linecap="round"/>
<line x1="703" y1="399" x2="900" y2="399" stroke="#e5e7eb" stroke-width="1" stroke-linecap="round"/>
<text x="696" y="399" fill="#64748b" font-size="12" font-weight="500" font-family="Inter, &quot;Noto Sans&quot;, &quot;DejaVu Sans&quot;, &quot;Arial Unicode MS&quot;, Arial, sans-serif" text-anchor="end" dominant-baseline="middle">0.0</text>
<line x1="703" y1="284" x2="900" y2="284" stroke="#e5e7eb" stroke-width="1" stroke-linecap="round"/>
<text x="696" y="284" fill="#64748b" font-size="12" font-weight="500" font-family="Inter, &quot;Noto Sans&quot;, &quot;DejaVu Sans&quot;, &quot;Arial Unicode MS&quot;, Arial, sans-serif" text-anchor="end" dominant-baseline="middle">0.5</text>
<line x1="703" y1="169" x2="900" y2="169" stroke="#e5e7eb" stroke-width="1" stroke-linecap="round"/>
<text x="696" y="169" fill="#64748b" font-size="12" font-weight="500" font-family="Inter, &quot;Noto Sans&quot;, &quot;DejaVu Sans&quot;, &quot;Arial Unicode MS&quot;, Arial, sans-serif" text-anchor="end" dominant-baseline="middle">1.0</text>
<polyline points="708,284 709.067,280.524 710.133,277.053 711.2,273.59 712.267,270.139 713.333,266.706 714.4,263.293 715.467,259.906 716.533,256.548 717.6,253.224 718.667,249.937 719.733,246.692 720.8,243.492 721.867,240.341 722.933,237.244 724,234.204 725.067,231.224 726.133,228.308 727.2,225.461 728.267,222.684 729.333,219.983 730.4,217.359 731.467,214.817 732.533,212.359 733.6,209.988 734.667,207.707 735.733,205.52 736.8,203.428 737.867,201.434 738.933,199.54 740,197.75 741.067,196.065 742.133,194.486 743.2,193.017 744.267,191.659 745.333,190.413 746.4,189.282 747.467,188.265 748.533,187.365 749.6,186.583 750.667,185.92 751.733,185.376 752.8,184.953 753.867,184.65 754.933,184.468 756,184.407 757.067,184.468 758.133,184.65 759.2,184.953 760.267,185.376 761.333,185.92 762.4,186.583 763.467,187.365 764.533,188.265 765.6,189.282 766.667,190.413 767.733,191.659 768.8,193.017 769.867,194.486 770.933,196.065 772,197.75 773.067,199.54 774.133,201.434 775.2,203.428 776.267,205.52 777.333,207.707 778.4,209.988 779.467,212.359 780.533,214.817 781.6,217.359 782.667,219.983 783.733,222.684 784.8,225.461 785.867,228.308 786.933,231.224 788,234.204 789.067,237.244 790.133,240.341 791.2,243.492 792.267,246.692 793.333,249.937 794.4,253.224 795.467,256.548 796.533,259.906 797.6,263.293 798.667,266.706 799.733,270.139 800.8,273.59 801.867,277.053 802.933,280.524 804,284 805.067,287.476 806.133,290.947 807.2,294.41 808.267,297.861 809.333,301.294 810.4,304.707 811.467,308.094 812.533,311.452 813.6,314.776 814.667,318.063 815.733,321.308 816.8,324.508 817.867,327.659 818.933,330.756 820,333.796 821.067,336.776 822.133,339.692 823.2,342.539 824.267,345.316 825.333,348.017 826.4,350.641 827.467,353.183 828.533,355.641 829.6,358.012 830.667,360.293 831.733,362.48 832.8,364.572 833.867,366.566 834.933,368.46 836,370.25 837.067,371.935 838.133,373.514 839.2,374.983 840.267,376.341 841.333,377.587 842.4,378.718 843.467,379.735 844.533,380.635 845.6,381.417 846.667,382.08 847.733,382.624 848.8,383.047 849.867,383.35 850.933,383.532 852,383.593 853.067,383.532 854.133,383.35 855.2,383.047 856.267,382.624 857.333,382.08 858.4,381.417 859.467,380.635 860.533,379.735 861.6,378.718 862.667,377.587 863.733,376.341 864.8,374.983 865.867,373.514 866.933,371.935 868,370.25 869.067,368.46 870.133,366.566 871.2,364.572 872.267,362.48 873.333,360.293 874.4,358.012 875.467,355.641 876.533,353.183 877.6,350.641 878.667,348.017 879.733,345.316 880.8,342.539 881.867,339.692 882.933,336.776 884,333.796 885.067,330.756 886.133,327.659 887.2,324.508 888.267,321.308 889.333,318.063 890.4,314.776 891.467,311.452 892.533,308.094 893.6,304.707 894.667,301.294 895.733,297.861 896.8,294.41 897.867,290.947 898.933,287.476 900,284" fill="none" stroke="#7c3aed" stroke-width="3.2" stroke-linecap="round" stroke-linejoin="round"/>
<line x1="708" y1="399" x2="708" y2="404" stroke="#64748b" stroke-width="1.5" stroke-linecap="round"/>
<text x="708" y="423" fill="#64748b" font-size="12" font-weight="500" font-family="Inter, &quot;Noto Sans&quot;, &quot;DejaVu Sans&quot;, &quot;Arial Unicode MS&quot;, Arial, sans-serif" text-anchor="middle" dominant-baseline="middle">0</text>
<line x1="756" y1="399" x2="756" y2="404" stroke="#64748b" stroke-width="1.5" stroke-linecap="round"/>
<line x1="804" y1="399" x2="804" y2="404" stroke="#64748b" stroke-width="1.5" stroke-linecap="round"/>
<text x="804" y="423" fill="#64748b" font-size="12" font-weight="500" font-family="Inter, &quot;Noto Sans&quot;, &quot;DejaVu Sans&quot;, &quot;Arial Unicode MS&quot;, Arial, sans-serif" text-anchor="middle" dominant-baseline="middle">π</text>
<line x1="852" y1="399" x2="852" y2="404" stroke="#64748b" stroke-width="1.5" stroke-linecap="round"/>
<line x1="900" y1="399" x2="900" y2="404" stroke="#64748b" stroke-width="1.5" stroke-linecap="round"/>
<text x="900" y="423" fill="#64748b" font-size="12" font-weight="500" font-family="Inter, &quot;Noto Sans&quot;, &quot;DejaVu Sans&quot;, &quot;Arial Unicode MS&quot;, Arial, sans-serif" text-anchor="middle" dominant-baseline="middle">2π</text>
<text x="795" y="421" fill="#7c3aed" font-size="16" font-weight="700" font-family="Inter, &quot;Noto Sans&quot;, &quot;DejaVu Sans&quot;, &quot;Arial Unicode MS&quot;, Arial, sans-serif" text-anchor="middle" dominant-baseline="middle">P(Y=+i)</text>
<rect x="170" y="505" width="660" height="70" fill="#ffffff" stroke="#cbd5e1" stroke-width="2" rx="8"/>
<text x="500" y="528" fill="#1f2937" font-size="17" font-weight="700" font-family="Inter, &quot;Noto Sans&quot;, &quot;DejaVu Sans&quot;, &quot;Arial Unicode MS&quot;, Arial, sans-serif" text-anchor="middle" dominant-baseline="middle">Interpretation: a basis is a choice of which Bloch-vector component becomes a 0/1 bias.</text>
<text x="500" y="558" fill="#64748b" font-size="17" font-weight="500" font-family="Inter, &quot;Noto Sans&quot;, &quot;DejaVu Sans&quot;, &quot;Arial Unicode MS&quot;, Arial, sans-serif" text-anchor="middle" dominant-baseline="middle">Z reads r_z, X reads r_x, and Y reads r_y.</text>
</svg>
